<?xml version="1.0" encoding="UTF-8" standalone="no"?>
<!DOCTYPE svg PUBLIC "-//W3C//DTD SVG 1.1//EN"
 "http://www.w3.org/Graphics/SVG/1.1/DTD/svg11.dtd">
<!-- Generated by graphviz version 2.38.0 (20140413.2041)
 -->
<!-- Title: %3 Pages: 1 -->
<svg width="888pt" height="116pt"
 viewBox="0.00 0.00 887.64 116.00" xmlns="http://www.w3.org/2000/svg" xmlns:xlink="http://www.w3.org/1999/xlink">
<g id="graph0" class="graph" transform="scale(1 1) rotate(0) translate(4 112)">
<title>%3</title>
<polygon fill="white" stroke="none" points="-4,4 -4,-112 883.64,-112 883.64,4 -4,4"/>
<!-- take_input -->
<g id="node1" class="node"><title>take_input</title>
<ellipse fill="none" stroke="black" cx="260.995" cy="-90" rx="48.1917" ry="18"/>
<text text-anchor="middle" x="260.995" y="-86.3" font-family="Times,serif" font-size="14.00">take_input</text>
</g>
<!-- mcflirt (fsl) -->
<g id="node2" class="node"><title>mcflirt (fsl)</title>
<ellipse fill="none" stroke="black" cx="51.9954" cy="-18" rx="51.9908" ry="18"/>
<text text-anchor="middle" x="51.9954" y="-14.3" font-family="Times,serif" font-size="14.00">mcflirt (fsl)</text>
</g>
<!-- take_input&#45;&gt;mcflirt (fsl) -->
<g id="edge3" class="edge"><title>take_input&#45;&gt;mcflirt (fsl)</title>
<path fill="none" stroke="black" d="M226.483,-77.4409C191.212,-65.6275 136.253,-47.2203 97.4549,-34.2257"/>
<polygon fill="black" stroke="black" points="98.5548,-30.903 87.9609,-31.0459 96.3316,-37.5406 98.5548,-30.903"/>
</g>
<!-- skullstrip (afni) -->
<g id="node3" class="node"><title>skullstrip (afni)</title>
<ellipse fill="none" stroke="black" cx="187.995" cy="-18" rx="65.7887" ry="18"/>
<text text-anchor="middle" x="187.995" y="-14.3" font-family="Times,serif" font-size="14.00">skullstrip (afni)</text>
</g>
<!-- take_input&#45;&gt;skullstrip (afni) -->
<g id="edge4" class="edge"><title>take_input&#45;&gt;skullstrip (afni)</title>
<path fill="none" stroke="black" d="M244.064,-72.7646C234.642,-63.7297 222.75,-52.3262 212.345,-42.3487"/>
<polygon fill="black" stroke="black" points="214.728,-39.7848 205.088,-35.3898 209.883,-44.8373 214.728,-39.7848"/>
</g>
<!-- warp152 (ants) -->
<g id="node7" class="node"><title>warp152 (ants)</title>
<ellipse fill="none" stroke="black" cx="334.995" cy="-18" rx="63.8893" ry="18"/>
<text text-anchor="middle" x="334.995" y="-14.3" font-family="Times,serif" font-size="14.00">warp152 (ants)</text>
</g>
<!-- take_input&#45;&gt;warp152 (ants) -->
<g id="edge2" class="edge"><title>take_input&#45;&gt;warp152 (ants)</title>
<path fill="none" stroke="black" d="M277.787,-73.1159C287.326,-64.0922 299.451,-52.6231 310.081,-42.5681"/>
<polygon fill="black" stroke="black" points="312.638,-44.9663 317.498,-35.5516 307.828,-39.881 312.638,-44.9663"/>
</g>
<!-- coreg_to_struct_space (fsl) -->
<g id="node8" class="node"><title>coreg_to_struct_space (fsl)</title>
<ellipse fill="none" stroke="black" cx="522.995" cy="-18" rx="106.681" ry="18"/>
<text text-anchor="middle" x="522.995" y="-14.3" font-family="Times,serif" font-size="14.00">coreg_to_struct_space (fsl)</text>
</g>
<!-- take_input&#45;&gt;coreg_to_struct_space (fsl) -->
<g id="edge1" class="edge"><title>take_input&#45;&gt;coreg_to_struct_space (fsl)</title>
<path fill="none" stroke="black" d="M299.092,-78.8214C340.871,-67.6591 408.624,-49.5573 458.672,-36.1856"/>
<polygon fill="black" stroke="black" points="459.675,-39.5405 468.433,-33.5778 457.868,-32.7777 459.675,-39.5405"/>
</g>
<!-- get_transforms -->
<g id="node4" class="node"><title>get_transforms</title>
<ellipse fill="none" stroke="black" cx="813.995" cy="-90" rx="63.8893" ry="18"/>
<text text-anchor="middle" x="813.995" y="-86.3" font-family="Times,serif" font-size="14.00">get_transforms</text>
</g>
<!-- isoSmooth (fsl) -->
<g id="node9" class="node"><title>isoSmooth (fsl)</title>
<ellipse fill="none" stroke="black" cx="813.995" cy="-18" rx="65.7887" ry="18"/>
<text text-anchor="middle" x="813.995" y="-14.3" font-family="Times,serif" font-size="14.00">isoSmooth (fsl)</text>
</g>
<!-- get_transforms&#45;&gt;isoSmooth (fsl) -->
<g id="edge5" class="edge"><title>get_transforms&#45;&gt;isoSmooth (fsl)</title>
<path fill="none" stroke="black" d="M813.995,-71.6966C813.995,-63.9827 813.995,-54.7125 813.995,-46.1124"/>
<polygon fill="black" stroke="black" points="817.495,-46.1043 813.995,-36.1043 810.495,-46.1044 817.495,-46.1043"/>
</g>
<!-- flirt (fsl) -->
<g id="node5" class="node"><title>flirt (fsl)</title>
<ellipse fill="none" stroke="black" cx="688.995" cy="-18" rx="40.8928" ry="18"/>
<text text-anchor="middle" x="688.995" y="-14.3" font-family="Times,serif" font-size="14.00">flirt (fsl)</text>
</g>
<!-- make_rcfe -->
<g id="node6" class="node"><title>make_rcfe</title>
<ellipse fill="none" stroke="black" cx="602.995" cy="-90" rx="48.1917" ry="18"/>
<text text-anchor="middle" x="602.995" y="-86.3" font-family="Times,serif" font-size="14.00">make_rcfe</text>
</g>
<!-- make_rcfe&#45;&gt;flirt (fsl) -->
<g id="edge7" class="edge"><title>make_rcfe&#45;&gt;flirt (fsl)</title>
<path fill="none" stroke="black" d="M622.082,-73.4647C633.966,-63.7916 649.423,-51.21 662.487,-40.5766"/>
<polygon fill="black" stroke="black" points="664.712,-43.2782 670.258,-34.251 660.293,-37.8493 664.712,-43.2782"/>
</g>
<!-- make_rcfe&#45;&gt;coreg_to_struct_space (fsl) -->
<g id="edge6" class="edge"><title>make_rcfe&#45;&gt;coreg_to_struct_space (fsl)</title>
<path fill="none" stroke="black" d="M584.842,-73.1159C574.504,-64.0702 561.358,-52.567 549.846,-42.4944"/>
<polygon fill="black" stroke="black" points="552.023,-39.7484 542.192,-35.7973 547.413,-45.0165 552.023,-39.7484"/>
</g>
</g>
</svg>
