<?xml version="1.0" encoding="UTF-8" standalone="no"?>
<!DOCTYPE svg PUBLIC "-//W3C//DTD SVG 1.1//EN"
 "http://www.w3.org/Graphics/SVG/1.1/DTD/svg11.dtd">
<!-- Generated by graphviz version 2.38.0 (20140413.2041)
 -->
<!-- Title: full_process Pages: 1 -->
<svg width="787pt" height="397pt"
 viewBox="0.00 0.00 787.29 397.00" xmlns="http://www.w3.org/2000/svg" xmlns:xlink="http://www.w3.org/1999/xlink">
<g id="graph0" class="graph" transform="scale(1 1) rotate(0) translate(4 393)">
<title>full_process</title>
<polygon fill="white" stroke="none" points="-4,4 -4,-393 783.288,-393 783.288,4 -4,4"/>
<text text-anchor="middle" x="389.644" y="-7.8" font-family="Times,serif" font-size="14.00">full_process</text>
<g id="clust1" class="cluster"><title>cluster_full_process_take_input</title>
<polygon fill="#b4b4ff" stroke="black" points="408.644,-87 408.644,-234 612.644,-234 612.644,-87 408.644,-87"/>
<text text-anchor="middle" x="510.644" y="-218.8" font-family="Times,serif" font-size="14.00">take_input</text>
</g>
<g id="clust2" class="cluster"><title>cluster_full_process_make_rcfe</title>
<polygon fill="#b4b4ff" stroke="black" points="37.6442,-87 37.6442,-381 193.644,-381 193.644,-87 37.6442,-87"/>
<text text-anchor="middle" x="115.644" y="-365.8" font-family="Times,serif" font-size="14.00">make_rcfe</text>
</g>
<!-- get_transforms_warp152 -->
<g id="node1" class="node"><title>get_transforms_warp152</title>
<ellipse fill="#ffffc8" stroke="black" cx="443.644" cy="-41" rx="63.8893" ry="18"/>
<text text-anchor="middle" x="443.644" y="-37.3" font-family="Times,serif" font-size="14.00">warp152 (ants)</text>
</g>
<!-- make_rcfe_mcflirt -->
<g id="node2" class="node"><title>make_rcfe_mcflirt</title>
<ellipse fill="#ffffc8" stroke="black" cx="577.644" cy="-41" rx="51.9908" ry="18"/>
<text text-anchor="middle" x="577.644" y="-37.3" font-family="Times,serif" font-size="14.00">mcflirt (fsl)</text>
</g>
<!-- get_transforms_skullstrip -->
<g id="node3" class="node"><title>get_transforms_skullstrip</title>
<ellipse fill="#ffffc8" stroke="black" cx="713.644" cy="-41" rx="65.7887" ry="18"/>
<text text-anchor="middle" x="713.644" y="-37.3" font-family="Times,serif" font-size="14.00">skullstrip (afni)</text>
</g>
<!-- get_transforms_coreg_to_struct_space -->
<g id="node4" class="node"><title>get_transforms_coreg_to_struct_space</title>
<ellipse fill="#ffffc8" stroke="black" cx="255.644" cy="-41" rx="106.681" ry="18"/>
<text text-anchor="middle" x="255.644" y="-37.3" font-family="Times,serif" font-size="14.00">coreg_to_struct_space (fsl)</text>
</g>
<!-- get_transforms_flirt -->
<g id="node5" class="node"><title>get_transforms_flirt</title>
<ellipse fill="#ffffc8" stroke="black" cx="242.644" cy="-113" rx="40.8928" ry="18"/>
<text text-anchor="middle" x="242.644" y="-109.3" font-family="Times,serif" font-size="14.00">flirt (fsl)</text>
</g>
<!-- full_process_isoSmooth -->
<g id="node6" class="node"><title>full_process_isoSmooth</title>
<ellipse fill="#ffffc8" stroke="black" cx="65.6442" cy="-41" rx="65.7887" ry="18"/>
<text text-anchor="middle" x="65.6442" y="-37.3" font-family="Times,serif" font-size="14.00">isoSmooth (fsl)</text>
</g>
<!-- full_process_take_input_file_grabber -->
<g id="node7" class="node"><title>full_process_take_input_file_grabber</title>
<polygon fill="#d9d9d9" stroke="black" points="563.644,-203 461.644,-203 457.644,-199 457.644,-167 559.644,-167 563.644,-171 563.644,-203"/>
<polyline fill="none" stroke="black" points="559.644,-199 457.644,-199 "/>
<polyline fill="none" stroke="black" points="559.644,-199 559.644,-167 "/>
<polyline fill="none" stroke="black" points="559.644,-199 563.644,-203 "/>
<text text-anchor="middle" x="510.644" y="-181.3" font-family="Times,serif" font-size="14.00">file_grabber (io)</text>
</g>
<!-- full_process_take_input_file_unwrapper -->
<g id="node8" class="node"><title>full_process_take_input_file_unwrapper</title>
<ellipse fill="#e6e6ff" stroke="black" cx="510.644" cy="-113" rx="93.6835" ry="18"/>
<text text-anchor="middle" x="510.644" y="-109.3" font-family="Times,serif" font-size="14.00">file_unwrapper (utility)</text>
</g>
<!-- full_process_take_input_file_grabber&#45;&gt;full_process_take_input_file_unwrapper -->
<g id="edge1" class="edge"><title>full_process_take_input_file_grabber&#45;&gt;full_process_take_input_file_unwrapper</title>
<path fill="none" stroke="#0000ff" d="M504.728,-166.697C503.933,-158.983 503.706,-149.712 504.049,-141.112"/>
<polygon fill="#0000ff" stroke="#0000ff" points="507.543,-141.324 504.749,-131.104 500.56,-140.836 507.543,-141.324"/>
</g>
<!-- full_process_take_input_file_grabber&#45;&gt;full_process_take_input_file_unwrapper -->
<g id="edge2" class="edge"><title>full_process_take_input_file_grabber&#45;&gt;full_process_take_input_file_unwrapper</title>
<path fill="none" stroke="#0000ff" d="M516.56,-166.697C517.356,-158.983 517.582,-149.712 517.239,-141.112"/>
<polygon fill="#0000ff" stroke="#0000ff" points="520.729,-140.836 516.539,-131.104 513.746,-141.324 520.729,-140.836"/>
</g>
<!-- full_process_take_input_file_unwrapper&#45;&gt;get_transforms_warp152 -->
<g id="edge13" class="edge"><title>full_process_take_input_file_unwrapper&#45;&gt;get_transforms_warp152</title>
<path fill="none" stroke="black" d="M494.425,-95.055C486.113,-86.3707 475.847,-75.6444 466.725,-66.114"/>
<polygon fill="black" stroke="black" points="469.157,-63.5931 459.714,-58.789 464.1,-68.4333 469.157,-63.5931"/>
</g>
<!-- full_process_take_input_file_unwrapper&#45;&gt;make_rcfe_mcflirt -->
<g id="edge12" class="edge"><title>full_process_take_input_file_unwrapper&#45;&gt;make_rcfe_mcflirt</title>
<path fill="none" stroke="black" d="M526.863,-95.055C535.297,-86.243 545.744,-75.3285 554.965,-65.6943"/>
<polygon fill="black" stroke="black" points="557.65,-67.9513 562.036,-58.307 552.593,-63.1111 557.65,-67.9513"/>
</g>
<!-- full_process_take_input_file_unwrapper&#45;&gt;get_transforms_skullstrip -->
<g id="edge10" class="edge"><title>full_process_take_input_file_unwrapper&#45;&gt;get_transforms_skullstrip</title>
<path fill="none" stroke="black" d="M554.193,-96.9832C586.639,-85.7949 630.967,-70.5094 664.649,-58.8947"/>
<polygon fill="black" stroke="black" points="665.979,-62.1387 674.291,-55.57 663.697,-55.5211 665.979,-62.1387"/>
</g>
<!-- full_process_take_input_file_unwrapper&#45;&gt;get_transforms_coreg_to_struct_space -->
<g id="edge11" class="edge"><title>full_process_take_input_file_unwrapper&#45;&gt;get_transforms_coreg_to_struct_space</title>
<path fill="none" stroke="black" d="M459.348,-97.9187C418.87,-86.807 362.205,-71.2521 318.914,-59.3681"/>
<polygon fill="black" stroke="black" points="319.624,-55.9337 309.054,-56.6616 317.771,-62.684 319.624,-55.9337"/>
</g>
<!-- full_process_make_rcfe_mcflirt -->
<g id="node9" class="node"><title>full_process_make_rcfe_mcflirt</title>
<ellipse fill="#e6e6ff" stroke="black" cx="115.644" cy="-332" rx="51.9908" ry="18"/>
<text text-anchor="middle" x="115.644" y="-328.3" font-family="Times,serif" font-size="14.00">mcflirt (fsl)</text>
</g>
<!-- full_process_make_rcfe_meanimage -->
<g id="node10" class="node"><title>full_process_make_rcfe_meanimage</title>
<ellipse fill="#e6e6ff" stroke="black" cx="115.644" cy="-260" rx="69.5877" ry="18"/>
<text text-anchor="middle" x="115.644" y="-256.3" font-family="Times,serif" font-size="14.00">meanimage (fsl)</text>
</g>
<!-- full_process_make_rcfe_mcflirt&#45;&gt;full_process_make_rcfe_meanimage -->
<g id="edge3" class="edge"><title>full_process_make_rcfe_mcflirt&#45;&gt;full_process_make_rcfe_meanimage</title>
<path fill="none" stroke="#0000ff" d="M115.644,-313.697C115.644,-305.983 115.644,-296.712 115.644,-288.112"/>
<polygon fill="#0000ff" stroke="#0000ff" points="119.144,-288.104 115.644,-278.104 112.144,-288.104 119.144,-288.104"/>
</g>
<!-- full_process_make_rcfe_bet_fmri -->
<g id="node11" class="node"><title>full_process_make_rcfe_bet_fmri</title>
<ellipse fill="#e6e6ff" stroke="black" cx="127.644" cy="-185" rx="58.4896" ry="18"/>
<text text-anchor="middle" x="127.644" y="-181.3" font-family="Times,serif" font-size="14.00">bet_fmri (fsl)</text>
</g>
<!-- full_process_make_rcfe_meanimage&#45;&gt;full_process_make_rcfe_bet_fmri -->
<g id="edge4" class="edge"><title>full_process_make_rcfe_meanimage&#45;&gt;full_process_make_rcfe_bet_fmri</title>
<path fill="none" stroke="#0000ff" d="M118.488,-241.7C119.893,-233.154 121.62,-222.645 123.195,-213.067"/>
<polygon fill="#0000ff" stroke="#0000ff" points="126.652,-213.611 124.821,-203.176 119.745,-212.476 126.652,-213.611"/>
</g>
<!-- full_process_make_rcfe_rcfe -->
<g id="node12" class="node"><title>full_process_make_rcfe_rcfe</title>
<ellipse fill="#e6e6ff" stroke="black" cx="113.644" cy="-113" rx="53.8905" ry="18"/>
<text text-anchor="middle" x="113.644" y="-109.3" font-family="Times,serif" font-size="14.00">rcfe (utility)</text>
</g>
<!-- full_process_make_rcfe_meanimage&#45;&gt;full_process_make_rcfe_rcfe -->
<g id="edge5" class="edge"><title>full_process_make_rcfe_meanimage&#45;&gt;full_process_make_rcfe_rcfe</title>
<path fill="none" stroke="#0000ff" d="M72.6809,-245.763C67.9305,-242.628 63.7105,-238.762 60.6442,-234 44.5229,-208.964 49.2487,-194.511 60.6442,-167 65.5461,-155.166 74.5147,-144.596 83.6976,-136.068"/>
<polygon fill="#0000ff" stroke="#0000ff" points="86.1197,-138.601 91.3772,-129.402 81.531,-133.314 86.1197,-138.601"/>
</g>
<!-- full_process_make_rcfe_bet_fmri&#45;&gt;get_transforms_flirt -->
<g id="edge8" class="edge"><title>full_process_make_rcfe_bet_fmri&#45;&gt;get_transforms_flirt</title>
<path fill="none" stroke="black" d="M152.881,-168.638C169.927,-158.262 192.566,-144.482 210.843,-133.357"/>
<polygon fill="black" stroke="black" points="212.7,-136.324 219.422,-128.135 209.06,-130.345 212.7,-136.324"/>
</g>
<!-- full_process_make_rcfe_bet_fmri&#45;&gt;full_process_make_rcfe_rcfe -->
<g id="edge6" class="edge"><title>full_process_make_rcfe_bet_fmri&#45;&gt;full_process_make_rcfe_rcfe</title>
<path fill="none" stroke="#0000ff" d="M124.184,-166.697C122.641,-158.983 120.787,-149.712 119.067,-141.112"/>
<polygon fill="#0000ff" stroke="#0000ff" points="122.458,-140.224 117.065,-131.104 115.594,-141.597 122.458,-140.224"/>
</g>
<!-- full_process_make_rcfe_rcfe&#45;&gt;get_transforms_coreg_to_struct_space -->
<g id="edge9" class="edge"><title>full_process_make_rcfe_rcfe&#45;&gt;get_transforms_coreg_to_struct_space</title>
<path fill="none" stroke="black" d="M142.723,-97.6655C163.19,-87.576 190.899,-73.9168 213.746,-62.6542"/>
<polygon fill="black" stroke="black" points="215.459,-65.712 222.881,-58.1511 212.364,-59.4334 215.459,-65.712"/>
</g>
<!-- full_process_make_rcfe_rcfe&#45;&gt;full_process_isoSmooth -->
<g id="edge7" class="edge"><title>full_process_make_rcfe_rcfe&#45;&gt;full_process_isoSmooth</title>
<path fill="none" stroke="black" d="M102.025,-95.055C96.3057,-86.7147 89.295,-76.4908 82.9596,-67.2517"/>
<polygon fill="black" stroke="black" points="85.6985,-65.0569 77.1566,-58.789 79.9254,-69.0157 85.6985,-65.0569"/>
</g>
</g>
</svg>
