<?xml version="1.0" encoding="UTF-8" standalone="no"?>
<!DOCTYPE svg PUBLIC "-//W3C//DTD SVG 1.1//EN"
 "http://www.w3.org/Graphics/SVG/1.1/DTD/svg11.dtd">
<!-- Generated by graphviz version 2.38.0 (20140413.2041)
 -->
<!-- Title: structs Pages: 1 -->
<svg width="1521pt" height="184pt"
 viewBox="0.00 0.00 1520.50 184.00" xmlns="http://www.w3.org/2000/svg" xmlns:xlink="http://www.w3.org/1999/xlink">
<g id="graph0" class="graph" transform="scale(1 1) rotate(0) translate(4 180)">
<title>structs</title>
<polygon fill="white" stroke="none" points="-4,4 -4,-180 1516.5,-180 1516.5,4 -4,4"/>
<!-- fmri_to_templateget_transforms -->
<g id="node1" class="node"><title>fmri_to_templateget_transforms</title>
<polygon fill="none" stroke="black" points="0,-106.5 0,-175.5 362,-175.5 362,-106.5 0,-106.5"/>
<text text-anchor="middle" x="15.5" y="-137.3" font-family="Times,serif" font-size="14.00">IN</text>
<polyline fill="none" stroke="black" points="31,-106.5 31,-175.5 "/>
<text text-anchor="middle" x="80" y="-160.3" font-family="Times,serif" font-size="14.00">get_transforms</text>
<polyline fill="none" stroke="black" points="31,-152.5 129,-152.5 "/>
<text text-anchor="middle" x="80" y="-137.3" font-family="Times,serif" font-size="14.00"> </text>
<polyline fill="none" stroke="black" points="31,-129.5 129,-129.5 "/>
<text text-anchor="middle" x="80" y="-114.3" font-family="Times,serif" font-size="14.00"> </text>
<polyline fill="none" stroke="black" points="129,-106.5 129,-175.5 "/>
<text text-anchor="middle" x="245.5" y="-154.8" font-family="Times,serif" font-size="14.00">OUT</text>
<polyline fill="none" stroke="black" points="129,-141.5 362,-141.5 "/>
<text text-anchor="middle" x="245.5" y="-120.3" font-family="Times,serif" font-size="14.00">coreg_to_template_space.output_image</text>
</g>
<!-- fmri_to_templateisoSmooth -->
<g id="node2" class="node"><title>fmri_to_templateisoSmooth</title>
<polygon fill="none" stroke="black" points="362.5,-0.5 362.5,-69.5 533.5,-69.5 533.5,-0.5 362.5,-0.5"/>
<text text-anchor="middle" x="388.5" y="-48.8" font-family="Times,serif" font-size="14.00">IN</text>
<polyline fill="none" stroke="black" points="362.5,-35.5 414.5,-35.5 "/>
<text text-anchor="middle" x="388.5" y="-14.3" font-family="Times,serif" font-size="14.00">in_file</text>
<polyline fill="none" stroke="black" points="414.5,-0.5 414.5,-69.5 "/>
<text text-anchor="middle" x="452" y="-54.3" font-family="Times,serif" font-size="14.00">isoSmooth</text>
<polyline fill="none" stroke="black" points="414.5,-46.5 489.5,-46.5 "/>
<text text-anchor="middle" x="452" y="-31.3" font-family="Times,serif" font-size="14.00">fsl</text>
<polyline fill="none" stroke="black" points="414.5,-23.5 489.5,-23.5 "/>
<text text-anchor="middle" x="452" y="-8.3" font-family="Times,serif" font-size="14.00"> </text>
<polyline fill="none" stroke="black" points="489.5,-0.5 489.5,-69.5 "/>
<text text-anchor="middle" x="511.5" y="-31.3" font-family="Times,serif" font-size="14.00">OUT</text>
</g>
<!-- fmri_to_templateget_transforms&#45;&gt;fmri_to_templateisoSmooth -->
<g id="edge1" class="edge"><title>fmri_to_templateget_transforms:outcoregtotemplatespaceoutputimage:e&#45;&gt;fmri_to_templateisoSmooth:ininfile:w</title>
<path fill="none" stroke="black" d="M363,-124C405.702,-124 330.665,-36.9434 351.291,-20.6202"/>
<polygon fill="black" stroke="black" points="352.257,-23.9848 361,-18 350.433,-17.2266 352.257,-23.9848"/>
</g>
<!-- full_processtake_input -->
<g id="node3" class="node"><title>full_processtake_input</title>
<polygon fill="none" stroke="black" points="526,-106.5 526,-175.5 796,-175.5 796,-106.5 526,-106.5"/>
<text text-anchor="middle" x="541.5" y="-137.3" font-family="Times,serif" font-size="14.00">IN</text>
<polyline fill="none" stroke="black" points="557,-106.5 557,-175.5 "/>
<text text-anchor="middle" x="594" y="-160.3" font-family="Times,serif" font-size="14.00">take_input</text>
<polyline fill="none" stroke="black" points="557,-152.5 631,-152.5 "/>
<text text-anchor="middle" x="594" y="-137.3" font-family="Times,serif" font-size="14.00"> </text>
<polyline fill="none" stroke="black" points="557,-129.5 631,-129.5 "/>
<text text-anchor="middle" x="594" y="-114.3" font-family="Times,serif" font-size="14.00"> </text>
<polyline fill="none" stroke="black" points="631,-106.5 631,-175.5 "/>
<text text-anchor="middle" x="713.5" y="-160.3" font-family="Times,serif" font-size="14.00">OUT</text>
<polyline fill="none" stroke="black" points="631,-152.5 796,-152.5 "/>
<text text-anchor="middle" x="713.5" y="-137.3" font-family="Times,serif" font-size="14.00">file_unwrapper.struct</text>
<polyline fill="none" stroke="black" points="631,-129.5 796,-129.5 "/>
<text text-anchor="middle" x="713.5" y="-114.3" font-family="Times,serif" font-size="14.00">file_unwrapper.time_series</text>
</g>
<!-- make_rcfemcflirt -->
<g id="node4" class="node"><title>make_rcfemcflirt</title>
<polygon fill="none" stroke="black" points="552,-0.5 552,-69.5 702,-69.5 702,-0.5 552,-0.5"/>
<text text-anchor="middle" x="578" y="-48.8" font-family="Times,serif" font-size="14.00">IN</text>
<polyline fill="none" stroke="black" points="552,-35.5 604,-35.5 "/>
<text text-anchor="middle" x="578" y="-14.3" font-family="Times,serif" font-size="14.00">in_file</text>
<polyline fill="none" stroke="black" points="604,-0.5 604,-69.5 "/>
<text text-anchor="middle" x="631" y="-54.3" font-family="Times,serif" font-size="14.00">mcflirt</text>
<polyline fill="none" stroke="black" points="604,-46.5 658,-46.5 "/>
<text text-anchor="middle" x="631" y="-31.3" font-family="Times,serif" font-size="14.00">fsl</text>
<polyline fill="none" stroke="black" points="604,-23.5 658,-23.5 "/>
<text text-anchor="middle" x="631" y="-8.3" font-family="Times,serif" font-size="14.00"> </text>
<polyline fill="none" stroke="black" points="658,-0.5 658,-69.5 "/>
<text text-anchor="middle" x="680" y="-31.3" font-family="Times,serif" font-size="14.00">OUT</text>
</g>
<!-- full_processtake_input&#45;&gt;make_rcfemcflirt -->
<g id="edge7" class="edge"><title>full_processtake_input:outfileunwrappertimeseries:e&#45;&gt;make_rcfemcflirt:ininfile:w</title>
<path fill="none" stroke="black" d="M797,-118C802.352,-118 799.663,-109.902 796,-106 720.981,-26.0724 624.426,-152.284 552,-70 546.452,-63.6966 542.337,-39.1024 544.934,-26.1237"/>
<polygon fill="black" stroke="black" points="547.821,-28.1068 551,-18 542.212,-23.9186 547.821,-28.1068"/>
</g>
<!-- get_transformsskullstrip -->
<g id="node5" class="node"><title>get_transformsskullstrip</title>
<polygon fill="none" stroke="black" points="720.5,-0.5 720.5,-69.5 883.5,-69.5 883.5,-0.5 720.5,-0.5"/>
<text text-anchor="middle" x="746.5" y="-48.8" font-family="Times,serif" font-size="14.00">IN</text>
<polyline fill="none" stroke="black" points="720.5,-35.5 772.5,-35.5 "/>
<text text-anchor="middle" x="746.5" y="-14.3" font-family="Times,serif" font-size="14.00">in_file</text>
<polyline fill="none" stroke="black" points="772.5,-0.5 772.5,-69.5 "/>
<text text-anchor="middle" x="806" y="-54.3" font-family="Times,serif" font-size="14.00">skullstrip</text>
<polyline fill="none" stroke="black" points="772.5,-46.5 839.5,-46.5 "/>
<text text-anchor="middle" x="806" y="-31.3" font-family="Times,serif" font-size="14.00">afni</text>
<polyline fill="none" stroke="black" points="772.5,-23.5 839.5,-23.5 "/>
<text text-anchor="middle" x="806" y="-8.3" font-family="Times,serif" font-size="14.00"> </text>
<polyline fill="none" stroke="black" points="839.5,-0.5 839.5,-69.5 "/>
<text text-anchor="middle" x="861.5" y="-31.3" font-family="Times,serif" font-size="14.00">OUT</text>
</g>
<!-- full_processtake_input&#45;&gt;get_transformsskullstrip -->
<g id="edge5" class="edge"><title>full_processtake_input:outfileunwrapperstruct:e&#45;&gt;get_transformsskullstrip:ininfile:w</title>
<path fill="none" stroke="black" d="M797,-141C812.562,-141 804.509,-119.03 796,-106 775.564,-74.7058 740.289,-101.389 720,-70 715.491,-63.0235 710.976,-39.2124 713.085,-26.3706"/>
<polygon fill="black" stroke="black" points="716.087,-28.1866 719,-18 710.371,-24.1468 716.087,-28.1866"/>
</g>
<!-- get_transformswarp152 -->
<g id="node6" class="node"><title>get_transformswarp152</title>
<polygon fill="none" stroke="black" points="901.5,-0.5 901.5,-69.5 1094.5,-69.5 1094.5,-0.5 901.5,-0.5"/>
<text text-anchor="middle" x="944" y="-48.8" font-family="Times,serif" font-size="14.00">IN</text>
<polyline fill="none" stroke="black" points="901.5,-35.5 986.5,-35.5 "/>
<text text-anchor="middle" x="944" y="-14.3" font-family="Times,serif" font-size="14.00">input_image</text>
<polyline fill="none" stroke="black" points="986.5,-0.5 986.5,-69.5 "/>
<text text-anchor="middle" x="1018.5" y="-54.3" font-family="Times,serif" font-size="14.00">warp152</text>
<polyline fill="none" stroke="black" points="986.5,-46.5 1050.5,-46.5 "/>
<text text-anchor="middle" x="1018.5" y="-31.3" font-family="Times,serif" font-size="14.00">ants</text>
<polyline fill="none" stroke="black" points="986.5,-23.5 1050.5,-23.5 "/>
<text text-anchor="middle" x="1018.5" y="-8.3" font-family="Times,serif" font-size="14.00"> </text>
<polyline fill="none" stroke="black" points="1050.5,-0.5 1050.5,-69.5 "/>
<text text-anchor="middle" x="1072.5" y="-31.3" font-family="Times,serif" font-size="14.00">OUT</text>
</g>
<!-- full_processtake_input&#45;&gt;get_transformswarp152 -->
<g id="edge6" class="edge"><title>full_processtake_input:outfileunwrapperstruct:e&#45;&gt;get_transformswarp152:ininputimage:w</title>
<path fill="none" stroke="black" d="M797,-141C849.711,-141 864.862,-115.189 892,-70 896.326,-62.796 892.527,-39.0845 894.388,-26.3166"/>
<polygon fill="black" stroke="black" points="897.308,-28.2471 900,-18 891.505,-24.3315 897.308,-28.2471"/>
</g>
<!-- get_transformscoreg_to_struct_space -->
<g id="node8" class="node"><title>get_transformscoreg_to_struct_space</title>
<polygon fill="none" stroke="black" points="1113,-0.5 1113,-69.5 1361,-69.5 1361,-0.5 1113,-0.5"/>
<text text-anchor="middle" x="1146.5" y="-54.3" font-family="Times,serif" font-size="14.00">IN</text>
<polyline fill="none" stroke="black" points="1113,-46.5 1180,-46.5 "/>
<text text-anchor="middle" x="1146.5" y="-31.3" font-family="Times,serif" font-size="14.00">in_file</text>
<polyline fill="none" stroke="black" points="1113,-23.5 1180,-23.5 "/>
<text text-anchor="middle" x="1146.5" y="-8.3" font-family="Times,serif" font-size="14.00">reference</text>
<polyline fill="none" stroke="black" points="1180,-0.5 1180,-69.5 "/>
<text text-anchor="middle" x="1248.5" y="-54.3" font-family="Times,serif" font-size="14.00">coreg_to_struct_space</text>
<polyline fill="none" stroke="black" points="1180,-46.5 1317,-46.5 "/>
<text text-anchor="middle" x="1248.5" y="-31.3" font-family="Times,serif" font-size="14.00">fsl</text>
<polyline fill="none" stroke="black" points="1180,-23.5 1317,-23.5 "/>
<text text-anchor="middle" x="1248.5" y="-8.3" font-family="Times,serif" font-size="14.00"> </text>
<polyline fill="none" stroke="black" points="1317,-0.5 1317,-69.5 "/>
<text text-anchor="middle" x="1339" y="-31.3" font-family="Times,serif" font-size="14.00">OUT</text>
</g>
<!-- full_processtake_input&#45;&gt;get_transformscoreg_to_struct_space -->
<g id="edge4" class="edge"><title>full_processtake_input:outfileunwrapperstruct:e&#45;&gt;get_transformscoreg_to_struct_space:inreference:w</title>
<path fill="none" stroke="black" d="M797,-141C831.903,-141 1079.25,-95.5769 1103,-70 1109.52,-62.9809 1104.28,-34.9913 1106.21,-20.6171"/>
<polygon fill="black" stroke="black" points="1109.33,-22.2516 1112,-12 1103.52,-18.3459 1109.33,-22.2516"/>
</g>
<!-- full_processmake_rcfe -->
<g id="node7" class="node"><title>full_processmake_rcfe</title>
<polygon fill="none" stroke="black" points="1024.5,-106.5 1024.5,-175.5 1245.5,-175.5 1245.5,-106.5 1024.5,-106.5"/>
<text text-anchor="middle" x="1040" y="-137.3" font-family="Times,serif" font-size="14.00">IN</text>
<polyline fill="none" stroke="black" points="1055.5,-106.5 1055.5,-175.5 "/>
<text text-anchor="middle" x="1092.5" y="-160.3" font-family="Times,serif" font-size="14.00">make_rcfe</text>
<polyline fill="none" stroke="black" points="1055.5,-152.5 1129.5,-152.5 "/>
<text text-anchor="middle" x="1092.5" y="-137.3" font-family="Times,serif" font-size="14.00"> </text>
<polyline fill="none" stroke="black" points="1055.5,-129.5 1129.5,-129.5 "/>
<text text-anchor="middle" x="1092.5" y="-114.3" font-family="Times,serif" font-size="14.00"> </text>
<polyline fill="none" stroke="black" points="1129.5,-106.5 1129.5,-175.5 "/>
<text text-anchor="middle" x="1187.5" y="-160.3" font-family="Times,serif" font-size="14.00">OUT</text>
<polyline fill="none" stroke="black" points="1129.5,-152.5 1245.5,-152.5 "/>
<text text-anchor="middle" x="1187.5" y="-137.3" font-family="Times,serif" font-size="14.00">bet_fmri.out_file</text>
<polyline fill="none" stroke="black" points="1129.5,-129.5 1245.5,-129.5 "/>
<text text-anchor="middle" x="1187.5" y="-114.3" font-family="Times,serif" font-size="14.00">rcfe.output_image</text>
</g>
<!-- full_processmake_rcfe&#45;&gt;get_transformscoreg_to_struct_space -->
<g id="edge3" class="edge"><title>full_processmake_rcfe:outrcfeoutputimage:e&#45;&gt;get_transformscoreg_to_struct_space:ininfile:w</title>
<path fill="none" stroke="black" d="M1247,-118C1252.35,-118 1249.43,-110.111 1246,-106 1206.79,-58.9578 1150.91,-118.094 1113,-70 1109.95,-66.1329 1107.25,-53.1443 1107.64,-44.1272"/>
<polygon fill="black" stroke="black" points="1110.85,-45.532 1112,-35 1104.53,-42.5148 1110.85,-45.532"/>
</g>
<!-- get_transformsflirt -->
<g id="node9" class="node"><title>get_transformsflirt</title>
<polygon fill="none" stroke="black" points="1379.5,-0.5 1379.5,-69.5 1512.5,-69.5 1512.5,-0.5 1379.5,-0.5"/>
<text text-anchor="middle" x="1405.5" y="-48.8" font-family="Times,serif" font-size="14.00">IN</text>
<polyline fill="none" stroke="black" points="1379.5,-35.5 1431.5,-35.5 "/>
<text text-anchor="middle" x="1405.5" y="-14.3" font-family="Times,serif" font-size="14.00">in_file</text>
<polyline fill="none" stroke="black" points="1431.5,-0.5 1431.5,-69.5 "/>
<text text-anchor="middle" x="1450" y="-54.3" font-family="Times,serif" font-size="14.00">flirt</text>
<polyline fill="none" stroke="black" points="1431.5,-46.5 1468.5,-46.5 "/>
<text text-anchor="middle" x="1450" y="-31.3" font-family="Times,serif" font-size="14.00">fsl</text>
<polyline fill="none" stroke="black" points="1431.5,-23.5 1468.5,-23.5 "/>
<text text-anchor="middle" x="1450" y="-8.3" font-family="Times,serif" font-size="14.00"> </text>
<polyline fill="none" stroke="black" points="1468.5,-0.5 1468.5,-69.5 "/>
<text text-anchor="middle" x="1490.5" y="-31.3" font-family="Times,serif" font-size="14.00">OUT</text>
</g>
<!-- full_processmake_rcfe&#45;&gt;get_transformsflirt -->
<g id="edge2" class="edge"><title>full_processmake_rcfe:outbetfmrioutfile:e&#45;&gt;get_transformsflirt:ininfile:w</title>
<path fill="none" stroke="black" d="M1247,-141C1310.12,-141 1334.36,-122.097 1370,-70 1374.74,-63.0643 1370.76,-39.2354 1372.49,-26.3803"/>
<polygon fill="black" stroke="black" points="1375.43,-28.278 1378,-18 1369.58,-24.431 1375.43,-28.278"/>
</g>
</g>
</svg>
