<?xml version="1.0" encoding="UTF-8" standalone="no"?>
<!DOCTYPE svg PUBLIC "-//W3C//DTD SVG 1.1//EN"
 "http://www.w3.org/Graphics/SVG/1.1/DTD/svg11.dtd">
<!-- Generated by graphviz version 2.38.0 (20140413.2041)
 -->
<!-- Title: full_process Pages: 1 -->
<svg width="1039pt" height="397pt"
 viewBox="0.00 0.00 1038.59 397.00" xmlns="http://www.w3.org/2000/svg" xmlns:xlink="http://www.w3.org/1999/xlink">
<g id="graph0" class="graph" transform="scale(1 1) rotate(0) translate(4 393)">
<title>full_process</title>
<polygon fill="white" stroke="none" points="-4,4 -4,-393 1034.59,-393 1034.59,4 -4,4"/>
<text text-anchor="middle" x="515.295" y="-7.8" font-family="Times,serif" font-size="14.00">full_process</text>
<g id="clust1" class="cluster"><title>cluster_full_process_take_input</title>
<polygon fill="#b4b4ff" stroke="black" points="305.591,-87 305.591,-234 509.591,-234 509.591,-87 305.591,-87"/>
<text text-anchor="middle" x="407.591" y="-218.8" font-family="Times,serif" font-size="14.00">take_input</text>
</g>
<g id="clust2" class="cluster"><title>cluster_fmri_to_template_get_transforms</title>
<polygon fill="#b4b4ff" stroke="black" points="650.591,-87 650.591,-381 1022.59,-381 1022.59,-87 650.591,-87"/>
<text text-anchor="middle" x="836.591" y="-365.8" font-family="Times,serif" font-size="14.00">get_transforms</text>
</g>
<g id="clust3" class="cluster"><title>cluster_full_process_make_rcfe</title>
<polygon fill="#b4b4ff" stroke="black" points="30.5905,-87 30.5905,-381 186.591,-381 186.591,-87 30.5905,-87"/>
<text text-anchor="middle" x="108.591" y="-365.8" font-family="Times,serif" font-size="14.00">make_rcfe</text>
</g>
<!-- get_transforms_warp152 -->
<g id="node1" class="node"><title>get_transforms_warp152</title>
<ellipse fill="#ffffc8" stroke="black" cx="294.591" cy="-41" rx="63.8893" ry="18"/>
<text text-anchor="middle" x="294.591" y="-37.3" font-family="Times,serif" font-size="14.00">warp152 (ants)</text>
</g>
<!-- get_transforms_skullstrip -->
<g id="node2" class="node"><title>get_transforms_skullstrip</title>
<ellipse fill="#ffffc8" stroke="black" cx="441.591" cy="-41" rx="65.7887" ry="18"/>
<text text-anchor="middle" x="441.591" y="-37.3" font-family="Times,serif" font-size="14.00">skullstrip (afni)</text>
</g>
<!-- make_rcfe_mcflirt -->
<g id="node3" class="node"><title>make_rcfe_mcflirt</title>
<ellipse fill="#ffffc8" stroke="black" cx="577.591" cy="-41" rx="51.9908" ry="18"/>
<text text-anchor="middle" x="577.591" y="-37.3" font-family="Times,serif" font-size="14.00">mcflirt (fsl)</text>
</g>
<!-- fmri_to_template_isoSmooth -->
<g id="node4" class="node"><title>fmri_to_template_isoSmooth</title>
<ellipse fill="#ffffc8" stroke="black" cx="418.591" cy="-260" rx="65.7887" ry="18"/>
<text text-anchor="middle" x="418.591" y="-256.3" font-family="Times,serif" font-size="14.00">isoSmooth (fsl)</text>
</g>
<!-- get_transforms_coreg_to_struct_space -->
<g id="node5" class="node"><title>get_transforms_coreg_to_struct_space</title>
<ellipse fill="#ffffc8" stroke="black" cx="106.591" cy="-41" rx="106.681" ry="18"/>
<text text-anchor="middle" x="106.591" y="-37.3" font-family="Times,serif" font-size="14.00">coreg_to_struct_space (fsl)</text>
</g>
<!-- get_transforms_flirt -->
<g id="node6" class="node"><title>get_transforms_flirt</title>
<ellipse fill="#ffffc8" stroke="black" cx="235.591" cy="-113" rx="40.8928" ry="18"/>
<text text-anchor="middle" x="235.591" y="-109.3" font-family="Times,serif" font-size="14.00">flirt (fsl)</text>
</g>
<!-- full_process_take_input_file_grabber -->
<g id="node7" class="node"><title>full_process_take_input_file_grabber</title>
<polygon fill="#d9d9d9" stroke="black" points="460.591,-203 358.591,-203 354.591,-199 354.591,-167 456.591,-167 460.591,-171 460.591,-203"/>
<polyline fill="none" stroke="black" points="456.591,-199 354.591,-199 "/>
<polyline fill="none" stroke="black" points="456.591,-199 456.591,-167 "/>
<polyline fill="none" stroke="black" points="456.591,-199 460.591,-203 "/>
<text text-anchor="middle" x="407.591" y="-181.3" font-family="Times,serif" font-size="14.00">file_grabber (io)</text>
</g>
<!-- full_process_take_input_file_unwrapper -->
<g id="node8" class="node"><title>full_process_take_input_file_unwrapper</title>
<ellipse fill="#e6e6ff" stroke="black" cx="407.591" cy="-113" rx="93.6835" ry="18"/>
<text text-anchor="middle" x="407.591" y="-109.3" font-family="Times,serif" font-size="14.00">file_unwrapper (utility)</text>
</g>
<!-- full_process_take_input_file_grabber&#45;&gt;full_process_take_input_file_unwrapper -->
<g id="edge1" class="edge"><title>full_process_take_input_file_grabber&#45;&gt;full_process_take_input_file_unwrapper</title>
<path fill="none" stroke="#0000ff" d="M401.675,-166.697C400.879,-158.983 400.653,-149.712 400.995,-141.112"/>
<polygon fill="#0000ff" stroke="#0000ff" points="404.489,-141.324 401.696,-131.104 397.506,-140.836 404.489,-141.324"/>
</g>
<!-- full_process_take_input_file_grabber&#45;&gt;full_process_take_input_file_unwrapper -->
<g id="edge2" class="edge"><title>full_process_take_input_file_grabber&#45;&gt;full_process_take_input_file_unwrapper</title>
<path fill="none" stroke="#0000ff" d="M413.506,-166.697C414.302,-158.983 414.528,-149.712 414.186,-141.112"/>
<polygon fill="#0000ff" stroke="#0000ff" points="417.675,-140.836 413.486,-131.104 410.692,-141.324 417.675,-140.836"/>
</g>
<!-- full_process_take_input_file_unwrapper&#45;&gt;get_transforms_warp152 -->
<g id="edge19" class="edge"><title>full_process_take_input_file_unwrapper&#45;&gt;get_transforms_warp152</title>
<path fill="none" stroke="black" d="M381.097,-95.5881C365.466,-85.9049 345.517,-73.5475 328.717,-63.1401"/>
<polygon fill="black" stroke="black" points="330.099,-59.8791 319.754,-57.5882 326.412,-65.8298 330.099,-59.8791"/>
</g>
<!-- full_process_take_input_file_unwrapper&#45;&gt;get_transforms_skullstrip -->
<g id="edge18" class="edge"><title>full_process_take_input_file_unwrapper&#45;&gt;get_transforms_skullstrip</title>
<path fill="none" stroke="black" d="M415.821,-95.055C419.689,-87.0915 424.391,-77.4107 428.714,-68.5097"/>
<polygon fill="black" stroke="black" points="431.979,-69.7996 433.2,-59.2753 425.682,-66.7412 431.979,-69.7996"/>
</g>
<!-- full_process_take_input_file_unwrapper&#45;&gt;make_rcfe_mcflirt -->
<g id="edge16" class="edge"><title>full_process_take_input_file_unwrapper&#45;&gt;make_rcfe_mcflirt</title>
<path fill="none" stroke="black" d="M445.319,-96.4647C472.182,-85.4034 508.282,-70.5389 535.981,-59.1333"/>
<polygon fill="black" stroke="black" points="537.485,-62.2991 545.399,-55.2552 534.82,-55.8264 537.485,-62.2991"/>
</g>
<!-- full_process_take_input_file_unwrapper&#45;&gt;get_transforms_coreg_to_struct_space -->
<g id="edge17" class="edge"><title>full_process_take_input_file_unwrapper&#45;&gt;get_transforms_coreg_to_struct_space</title>
<path fill="none" stroke="black" d="M350.266,-98.6688C300.831,-87.1722 229.283,-70.5332 176.497,-58.2574"/>
<polygon fill="black" stroke="black" points="177.069,-54.797 166.536,-55.9408 175.483,-61.615 177.069,-54.797"/>
</g>
<!-- full_process_get_transforms_skullstrip -->
<g id="node9" class="node"><title>full_process_get_transforms_skullstrip</title>
<ellipse fill="#e6e6ff" stroke="black" cx="907.591" cy="-332" rx="65.7887" ry="18"/>
<text text-anchor="middle" x="907.591" y="-328.3" font-family="Times,serif" font-size="14.00">skullstrip (afni)</text>
</g>
<!-- full_process_get_transforms_flirt -->
<g id="node10" class="node"><title>full_process_get_transforms_flirt</title>
<ellipse fill="#e6e6ff" stroke="black" cx="907.591" cy="-260" rx="40.8928" ry="18"/>
<text text-anchor="middle" x="907.591" y="-256.3" font-family="Times,serif" font-size="14.00">flirt (fsl)</text>
</g>
<!-- full_process_get_transforms_skullstrip&#45;&gt;full_process_get_transforms_flirt -->
<g id="edge3" class="edge"><title>full_process_get_transforms_skullstrip&#45;&gt;full_process_get_transforms_flirt</title>
<path fill="none" stroke="#0000ff" d="M907.591,-313.697C907.591,-305.983 907.591,-296.712 907.591,-288.112"/>
<polygon fill="#0000ff" stroke="#0000ff" points="911.091,-288.104 907.591,-278.104 904.091,-288.104 911.091,-288.104"/>
</g>
<!-- full_process_get_transforms_coreg_to_struct_space -->
<g id="node11" class="node"><title>full_process_get_transforms_coreg_to_struct_space</title>
<ellipse fill="#e6e6ff" stroke="black" cx="907.591" cy="-185" rx="106.681" ry="18"/>
<text text-anchor="middle" x="907.591" y="-181.3" font-family="Times,serif" font-size="14.00">coreg_to_struct_space (fsl)</text>
</g>
<!-- full_process_get_transforms_flirt&#45;&gt;full_process_get_transforms_coreg_to_struct_space -->
<g id="edge4" class="edge"><title>full_process_get_transforms_flirt&#45;&gt;full_process_get_transforms_coreg_to_struct_space</title>
<path fill="none" stroke="#0000ff" d="M907.591,-241.7C907.591,-233.245 907.591,-222.869 907.591,-213.373"/>
<polygon fill="#0000ff" stroke="#0000ff" points="911.091,-213.176 907.591,-203.176 904.091,-213.176 911.091,-213.176"/>
</g>
<!-- full_process_get_transforms_coreg_to_template_space -->
<g id="node14" class="node"><title>full_process_get_transforms_coreg_to_template_space</title>
<ellipse fill="#e6e6ff" stroke="black" cx="836.591" cy="-113" rx="122.678" ry="18"/>
<text text-anchor="middle" x="836.591" y="-109.3" font-family="Times,serif" font-size="14.00">coreg_to_template_space (ants)</text>
</g>
<!-- full_process_get_transforms_coreg_to_struct_space&#45;&gt;full_process_get_transforms_coreg_to_template_space -->
<g id="edge5" class="edge"><title>full_process_get_transforms_coreg_to_struct_space&#45;&gt;full_process_get_transforms_coreg_to_template_space</title>
<path fill="none" stroke="#0000ff" d="M890.403,-167.055C881.725,-158.498 871.035,-147.959 861.476,-138.535"/>
<polygon fill="#0000ff" stroke="#0000ff" points="863.691,-135.804 854.113,-131.275 858.776,-140.788 863.691,-135.804"/>
</g>
<!-- full_process_get_transforms_warp152 -->
<g id="node12" class="node"><title>full_process_get_transforms_warp152</title>
<ellipse fill="#e6e6ff" stroke="black" cx="722.591" cy="-260" rx="63.8893" ry="18"/>
<text text-anchor="middle" x="722.591" y="-256.3" font-family="Times,serif" font-size="14.00">warp152 (ants)</text>
</g>
<!-- full_process_get_transforms_merge -->
<g id="node13" class="node"><title>full_process_get_transforms_merge</title>
<ellipse fill="#e6e6ff" stroke="black" cx="720.591" cy="-185" rx="62.2891" ry="18"/>
<text text-anchor="middle" x="720.591" y="-181.3" font-family="Times,serif" font-size="14.00">merge (utility)</text>
</g>
<!-- full_process_get_transforms_warp152&#45;&gt;full_process_get_transforms_merge -->
<g id="edge6" class="edge"><title>full_process_get_transforms_warp152&#45;&gt;full_process_get_transforms_merge</title>
<path fill="none" stroke="#0000ff" d="M716.326,-242.069C715.165,-233.47 714.624,-222.814 714.786,-213.108"/>
<polygon fill="#0000ff" stroke="#0000ff" points="718.283,-213.241 715.241,-203.092 711.291,-212.923 718.283,-213.241"/>
</g>
<!-- full_process_get_transforms_warp152&#45;&gt;full_process_get_transforms_merge -->
<g id="edge7" class="edge"><title>full_process_get_transforms_warp152&#45;&gt;full_process_get_transforms_merge</title>
<path fill="none" stroke="#0000ff" d="M727.956,-241.7C728.614,-233.184 728.564,-222.718 727.885,-213.167"/>
<polygon fill="#0000ff" stroke="#0000ff" points="731.338,-212.523 726.854,-202.924 724.373,-213.224 731.338,-212.523"/>
</g>
<!-- full_process_get_transforms_merge&#45;&gt;full_process_get_transforms_coreg_to_template_space -->
<g id="edge8" class="edge"><title>full_process_get_transforms_merge&#45;&gt;full_process_get_transforms_coreg_to_template_space</title>
<path fill="none" stroke="#0000ff" d="M746.335,-168.465C762.136,-158.929 782.621,-146.568 800.08,-136.032"/>
<polygon fill="#0000ff" stroke="#0000ff" points="802.14,-138.877 808.893,-130.714 798.523,-132.884 802.14,-138.877"/>
</g>
<!-- full_process_make_rcfe_mcflirt -->
<g id="node15" class="node"><title>full_process_make_rcfe_mcflirt</title>
<ellipse fill="#e6e6ff" stroke="black" cx="108.591" cy="-332" rx="51.9908" ry="18"/>
<text text-anchor="middle" x="108.591" y="-328.3" font-family="Times,serif" font-size="14.00">mcflirt (fsl)</text>
</g>
<!-- full_process_make_rcfe_meanimage -->
<g id="node16" class="node"><title>full_process_make_rcfe_meanimage</title>
<ellipse fill="#e6e6ff" stroke="black" cx="108.591" cy="-260" rx="69.5877" ry="18"/>
<text text-anchor="middle" x="108.591" y="-256.3" font-family="Times,serif" font-size="14.00">meanimage (fsl)</text>
</g>
<!-- full_process_make_rcfe_mcflirt&#45;&gt;full_process_make_rcfe_meanimage -->
<g id="edge9" class="edge"><title>full_process_make_rcfe_mcflirt&#45;&gt;full_process_make_rcfe_meanimage</title>
<path fill="none" stroke="#0000ff" d="M108.591,-313.697C108.591,-305.983 108.591,-296.712 108.591,-288.112"/>
<polygon fill="#0000ff" stroke="#0000ff" points="112.091,-288.104 108.591,-278.104 105.091,-288.104 112.091,-288.104"/>
</g>
<!-- full_process_make_rcfe_bet_fmri -->
<g id="node17" class="node"><title>full_process_make_rcfe_bet_fmri</title>
<ellipse fill="#e6e6ff" stroke="black" cx="120.591" cy="-185" rx="58.4896" ry="18"/>
<text text-anchor="middle" x="120.591" y="-181.3" font-family="Times,serif" font-size="14.00">bet_fmri (fsl)</text>
</g>
<!-- full_process_make_rcfe_meanimage&#45;&gt;full_process_make_rcfe_bet_fmri -->
<g id="edge11" class="edge"><title>full_process_make_rcfe_meanimage&#45;&gt;full_process_make_rcfe_bet_fmri</title>
<path fill="none" stroke="#0000ff" d="M111.434,-241.7C112.839,-233.154 114.567,-222.645 116.141,-213.067"/>
<polygon fill="#0000ff" stroke="#0000ff" points="119.599,-213.611 117.767,-203.176 112.691,-212.476 119.599,-213.611"/>
</g>
<!-- full_process_make_rcfe_rcfe -->
<g id="node18" class="node"><title>full_process_make_rcfe_rcfe</title>
<ellipse fill="#e6e6ff" stroke="black" cx="106.591" cy="-113" rx="53.8905" ry="18"/>
<text text-anchor="middle" x="106.591" y="-109.3" font-family="Times,serif" font-size="14.00">rcfe (utility)</text>
</g>
<!-- full_process_make_rcfe_meanimage&#45;&gt;full_process_make_rcfe_rcfe -->
<g id="edge10" class="edge"><title>full_process_make_rcfe_meanimage&#45;&gt;full_process_make_rcfe_rcfe</title>
<path fill="none" stroke="#0000ff" d="M65.6273,-245.763C60.8769,-242.628 56.6569,-238.762 53.5905,-234 37.4693,-208.964 42.1951,-194.511 53.5905,-167 58.4925,-155.166 67.461,-144.596 76.644,-136.068"/>
<polygon fill="#0000ff" stroke="#0000ff" points="79.066,-138.601 84.3236,-129.402 74.4774,-133.314 79.066,-138.601"/>
</g>
<!-- full_process_make_rcfe_bet_fmri&#45;&gt;get_transforms_flirt -->
<g id="edge13" class="edge"><title>full_process_make_rcfe_bet_fmri&#45;&gt;get_transforms_flirt</title>
<path fill="none" stroke="black" d="M145.828,-168.638C162.874,-158.262 185.513,-144.482 203.79,-133.357"/>
<polygon fill="black" stroke="black" points="205.646,-136.324 212.368,-128.135 202.006,-130.345 205.646,-136.324"/>
</g>
<!-- full_process_make_rcfe_bet_fmri&#45;&gt;full_process_make_rcfe_rcfe -->
<g id="edge12" class="edge"><title>full_process_make_rcfe_bet_fmri&#45;&gt;full_process_make_rcfe_rcfe</title>
<path fill="none" stroke="#0000ff" d="M117.13,-166.697C115.587,-158.983 113.733,-149.712 112.013,-141.112"/>
<polygon fill="#0000ff" stroke="#0000ff" points="115.405,-140.224 110.011,-131.104 108.541,-141.597 115.405,-140.224"/>
</g>
<!-- full_process_make_rcfe_rcfe&#45;&gt;get_transforms_coreg_to_struct_space -->
<g id="edge14" class="edge"><title>full_process_make_rcfe_rcfe&#45;&gt;get_transforms_coreg_to_struct_space</title>
<path fill="none" stroke="black" d="M106.591,-94.6966C106.591,-86.9827 106.591,-77.7125 106.591,-69.1124"/>
<polygon fill="black" stroke="black" points="110.091,-69.1043 106.591,-59.1043 103.091,-69.1044 110.091,-69.1043"/>
</g>
<!-- fmri_to_template_get_transforms_coreg_to_template_space -->
<g id="node19" class="node"><title>fmri_to_template_get_transforms_coreg_to_template_space</title>
<ellipse fill="none" stroke="black" cx="418.591" cy="-332" rx="224.46" ry="18"/>
<text text-anchor="middle" x="418.591" y="-328.3" font-family="Times,serif" font-size="14.00">fmri_to_template_get_transforms_coreg_to_template_space</text>
</g>
<!-- fmri_to_template_get_transforms_coreg_to_template_space&#45;&gt;fmri_to_template_isoSmooth -->
<g id="edge15" class="edge"><title>fmri_to_template_get_transforms_coreg_to_template_space&#45;&gt;fmri_to_template_isoSmooth</title>
<path fill="none" stroke="black" d="M418.591,-313.697C418.591,-305.983 418.591,-296.712 418.591,-288.112"/>
<polygon fill="black" stroke="black" points="422.091,-288.104 418.591,-278.104 415.091,-288.104 422.091,-288.104"/>
</g>
</g>
</svg>
