<?xml version="1.0" encoding="UTF-8" standalone="no"?>
<!DOCTYPE svg PUBLIC "-//W3C//DTD SVG 1.1//EN"
 "http://www.w3.org/Graphics/SVG/1.1/DTD/svg11.dtd">
<!-- Generated by graphviz version 2.38.0 (20140413.2041)
 -->
<!-- Title: structs Pages: 1 -->
<svg width="1493pt" height="972pt"
 viewBox="0.00 0.00 1492.50 972.00" xmlns="http://www.w3.org/2000/svg" xmlns:xlink="http://www.w3.org/1999/xlink">
<g id="graph0" class="graph" transform="scale(1 1) rotate(0) translate(4 968)">
<title>structs</title>
<polygon fill="white" stroke="none" points="-4,4 -4,-968 1488.5,-968 1488.5,4 -4,4"/>
<!-- process_timeseriesgrabber -->
<g id="node1" class="node"><title>process_timeseriesgrabber</title>
<polygon fill="none" stroke="black" points="0,-894.5 0,-963.5 168,-963.5 168,-894.5 0,-894.5"/>
<text text-anchor="middle" x="15.5" y="-925.3" font-family="Times,serif" font-size="14.00">IN</text>
<polyline fill="none" stroke="black" points="31,-894.5 31,-963.5 "/>
<text text-anchor="middle" x="60" y="-948.3" font-family="Times,serif" font-size="14.00">grabber</text>
<polyline fill="none" stroke="black" points="31,-940.5 89,-940.5 "/>
<text text-anchor="middle" x="60" y="-925.3" font-family="Times,serif" font-size="14.00">io</text>
<polyline fill="none" stroke="black" points="31,-917.5 89,-917.5 "/>
<text text-anchor="middle" x="60" y="-902.3" font-family="Times,serif" font-size="14.00"> </text>
<polyline fill="none" stroke="black" points="89,-894.5 89,-963.5 "/>
<text text-anchor="middle" x="128.5" y="-948.3" font-family="Times,serif" font-size="14.00">OUT</text>
<polyline fill="none" stroke="black" points="89,-940.5 168,-940.5 "/>
<text text-anchor="middle" x="128.5" y="-925.3" font-family="Times,serif" font-size="14.00">struct</text>
<polyline fill="none" stroke="black" points="89,-917.5 168,-917.5 "/>
<text text-anchor="middle" x="128.5" y="-902.3" font-family="Times,serif" font-size="14.00">time_series</text>
</g>
<!-- process_timeseriesunlister -->
<g id="node2" class="node"><title>process_timeseriesunlister</title>
<polygon fill="none" stroke="black" points="168.5,-788.5 168.5,-857.5 383.5,-857.5 383.5,-788.5 168.5,-788.5"/>
<text text-anchor="middle" x="208" y="-842.3" font-family="Times,serif" font-size="14.00">IN</text>
<polyline fill="none" stroke="black" points="168.5,-834.5 247.5,-834.5 "/>
<text text-anchor="middle" x="208" y="-819.3" font-family="Times,serif" font-size="14.00">struct</text>
<polyline fill="none" stroke="black" points="168.5,-811.5 247.5,-811.5 "/>
<text text-anchor="middle" x="208" y="-796.3" font-family="Times,serif" font-size="14.00">time_series</text>
<polyline fill="none" stroke="black" points="247.5,-788.5 247.5,-857.5 "/>
<text text-anchor="middle" x="276" y="-842.3" font-family="Times,serif" font-size="14.00">unlister</text>
<polyline fill="none" stroke="black" points="247.5,-834.5 304.5,-834.5 "/>
<text text-anchor="middle" x="276" y="-819.3" font-family="Times,serif" font-size="14.00">utility</text>
<polyline fill="none" stroke="black" points="247.5,-811.5 304.5,-811.5 "/>
<text text-anchor="middle" x="276" y="-796.3" font-family="Times,serif" font-size="14.00"> </text>
<polyline fill="none" stroke="black" points="304.5,-788.5 304.5,-857.5 "/>
<text text-anchor="middle" x="344" y="-842.3" font-family="Times,serif" font-size="14.00">OUT</text>
<polyline fill="none" stroke="black" points="304.5,-834.5 383.5,-834.5 "/>
<text text-anchor="middle" x="344" y="-819.3" font-family="Times,serif" font-size="14.00">struct</text>
<polyline fill="none" stroke="black" points="304.5,-811.5 383.5,-811.5 "/>
<text text-anchor="middle" x="344" y="-796.3" font-family="Times,serif" font-size="14.00">time_series</text>
</g>
<!-- process_timeseriesgrabber&#45;&gt;process_timeseriesunlister -->
<g id="edge7" class="edge"><title>process_timeseriesgrabber:outstruct:e&#45;&gt;process_timeseriesunlister:instruct:w</title>
<path fill="none" stroke="black" d="M169,-929C211.702,-929 136.665,-841.943 157.291,-825.62"/>
<polygon fill="black" stroke="black" points="158.257,-828.985 167,-823 156.433,-822.227 158.257,-828.985"/>
</g>
<!-- process_timeseriesgrabber&#45;&gt;process_timeseriesunlister -->
<g id="edge8" class="edge"><title>process_timeseriesgrabber:outtimeseries:e&#45;&gt;process_timeseriesunlister:intimeseries:w</title>
<path fill="none" stroke="black" d="M169,-906C190.338,-906 168.406,-879.334 168,-858 167.601,-837.056 150.17,-811.857 157.477,-803.144"/>
<polygon fill="black" stroke="black" points="158.601,-806.458 167,-800 156.407,-799.811 158.601,-806.458"/>
</g>
<!-- process_timeseriesmcflirt -->
<g id="node3" class="node"><title>process_timeseriesmcflirt</title>
<polygon fill="none" stroke="black" points="283.5,-682.5 283.5,-751.5 448.5,-751.5 448.5,-682.5 283.5,-682.5"/>
<text text-anchor="middle" x="309.5" y="-730.8" font-family="Times,serif" font-size="14.00">IN</text>
<polyline fill="none" stroke="black" points="283.5,-717.5 335.5,-717.5 "/>
<text text-anchor="middle" x="309.5" y="-696.3" font-family="Times,serif" font-size="14.00">in_file</text>
<polyline fill="none" stroke="black" points="335.5,-682.5 335.5,-751.5 "/>
<text text-anchor="middle" x="362.5" y="-736.3" font-family="Times,serif" font-size="14.00">mcflirt</text>
<polyline fill="none" stroke="black" points="335.5,-728.5 389.5,-728.5 "/>
<text text-anchor="middle" x="362.5" y="-713.3" font-family="Times,serif" font-size="14.00">fsl</text>
<polyline fill="none" stroke="black" points="335.5,-705.5 389.5,-705.5 "/>
<text text-anchor="middle" x="362.5" y="-690.3" font-family="Times,serif" font-size="14.00"> </text>
<polyline fill="none" stroke="black" points="389.5,-682.5 389.5,-751.5 "/>
<text text-anchor="middle" x="419" y="-730.8" font-family="Times,serif" font-size="14.00">OUT</text>
<polyline fill="none" stroke="black" points="389.5,-717.5 448.5,-717.5 "/>
<text text-anchor="middle" x="419" y="-696.3" font-family="Times,serif" font-size="14.00">out_file</text>
</g>
<!-- process_timeseriesunlister&#45;&gt;process_timeseriesmcflirt -->
<g id="edge17" class="edge"><title>process_timeseriesunlister:outtimeseries:e&#45;&gt;process_timeseriesmcflirt:ininfile:w</title>
<path fill="none" stroke="black" d="M385,-800C390.352,-800 387.263,-792.242 384,-788 354.941,-750.23 310.837,-790.68 283,-752 272.029,-736.756 262.966,-711.955 272.352,-703.191"/>
<polygon fill="black" stroke="black" points="273.605,-706.463 282,-700 271.407,-699.817 273.605,-706.463"/>
</g>
<!-- process_timeseriesskullstrip -->
<g id="node7" class="node"><title>process_timeseriesskullstrip</title>
<polygon fill="none" stroke="black" points="485,-576.5 485,-645.5 663,-645.5 663,-576.5 485,-576.5"/>
<text text-anchor="middle" x="511" y="-624.8" font-family="Times,serif" font-size="14.00">IN</text>
<polyline fill="none" stroke="black" points="485,-611.5 537,-611.5 "/>
<text text-anchor="middle" x="511" y="-590.3" font-family="Times,serif" font-size="14.00">in_file</text>
<polyline fill="none" stroke="black" points="537,-576.5 537,-645.5 "/>
<text text-anchor="middle" x="570.5" y="-630.3" font-family="Times,serif" font-size="14.00">skullstrip</text>
<polyline fill="none" stroke="black" points="537,-622.5 604,-622.5 "/>
<text text-anchor="middle" x="570.5" y="-607.3" font-family="Times,serif" font-size="14.00">afni</text>
<polyline fill="none" stroke="black" points="537,-599.5 604,-599.5 "/>
<text text-anchor="middle" x="570.5" y="-584.3" font-family="Times,serif" font-size="14.00"> </text>
<polyline fill="none" stroke="black" points="604,-576.5 604,-645.5 "/>
<text text-anchor="middle" x="633.5" y="-624.8" font-family="Times,serif" font-size="14.00">OUT</text>
<polyline fill="none" stroke="black" points="604,-611.5 663,-611.5 "/>
<text text-anchor="middle" x="633.5" y="-590.3" font-family="Times,serif" font-size="14.00">out_file</text>
</g>
<!-- process_timeseriesunlister&#45;&gt;process_timeseriesskullstrip -->
<g id="edge15" class="edge"><title>process_timeseriesunlister:outstruct:e&#45;&gt;process_timeseriesskullstrip:ininfile:w</title>
<path fill="none" stroke="black" d="M385,-823C429.942,-823 436.053,-791.761 457,-752 479.308,-709.655 468.138,-693.212 476,-646 477.38,-637.711 474.869,-614.474 477.689,-602.059"/>
<polygon fill="black" stroke="black" points="480.59,-604.031 484,-594 475.079,-599.715 480.59,-604.031"/>
</g>
<!-- process_timeseriescoreg -->
<g id="node9" class="node"><title>process_timeseriescoreg</title>
<polygon fill="none" stroke="black" points="683.5,-212.5 683.5,-304.5 884.5,-304.5 884.5,-212.5 683.5,-212.5"/>
<text text-anchor="middle" x="731" y="-289.3" font-family="Times,serif" font-size="14.00">IN</text>
<polyline fill="none" stroke="black" points="683.5,-281.5 778.5,-281.5 "/>
<text text-anchor="middle" x="731" y="-266.3" font-family="Times,serif" font-size="14.00">in_file</text>
<polyline fill="none" stroke="black" points="683.5,-258.5 778.5,-258.5 "/>
<text text-anchor="middle" x="731" y="-243.3" font-family="Times,serif" font-size="14.00">in_matrix_file</text>
<polyline fill="none" stroke="black" points="683.5,-235.5 778.5,-235.5 "/>
<text text-anchor="middle" x="731" y="-220.3" font-family="Times,serif" font-size="14.00">reference</text>
<polyline fill="none" stroke="black" points="778.5,-212.5 778.5,-304.5 "/>
<text text-anchor="middle" x="802" y="-285.8" font-family="Times,serif" font-size="14.00">coreg</text>
<polyline fill="none" stroke="black" points="778.5,-274.5 825.5,-274.5 "/>
<text text-anchor="middle" x="802" y="-255.3" font-family="Times,serif" font-size="14.00">fsl</text>
<polyline fill="none" stroke="black" points="778.5,-243.5 825.5,-243.5 "/>
<text text-anchor="middle" x="802" y="-224.3" font-family="Times,serif" font-size="14.00"> </text>
<polyline fill="none" stroke="black" points="825.5,-212.5 825.5,-304.5 "/>
<text text-anchor="middle" x="855" y="-277.8" font-family="Times,serif" font-size="14.00">OUT</text>
<polyline fill="none" stroke="black" points="825.5,-258.5 884.5,-258.5 "/>
<text text-anchor="middle" x="855" y="-231.8" font-family="Times,serif" font-size="14.00">out_file</text>
</g>
<!-- process_timeseriesunlister&#45;&gt;process_timeseriescoreg -->
<g id="edge14" class="edge"><title>process_timeseriesunlister:outstruct:e&#45;&gt;process_timeseriescoreg:inreference:w</title>
<path fill="none" stroke="black" d="M385,-823C400.562,-823 393.313,-800.468 384,-788 353.217,-746.787 308.016,-790.588 274,-752 232.096,-704.464 247,-675.369 247,-612 247,-612 247,-612 247,-504 247,-277.327 445.997,-225.017 671.907,-223.533"/>
<polygon fill="black" stroke="black" points="672.011,-227.033 682,-223.5 671.989,-220.033 672.011,-227.033"/>
</g>
<!-- process_timeserieswarp152 -->
<g id="node10" class="node"><title>process_timeserieswarp152</title>
<polygon fill="none" stroke="black" points="867,-341.5 867,-433.5 1151,-433.5 1151,-341.5 867,-341.5"/>
<text text-anchor="middle" x="909.5" y="-406.8" font-family="Times,serif" font-size="14.00">IN</text>
<polyline fill="none" stroke="black" points="867,-387.5 952,-387.5 "/>
<text text-anchor="middle" x="909.5" y="-360.8" font-family="Times,serif" font-size="14.00">input_image</text>
<polyline fill="none" stroke="black" points="952,-341.5 952,-433.5 "/>
<text text-anchor="middle" x="984" y="-414.8" font-family="Times,serif" font-size="14.00">warp152</text>
<polyline fill="none" stroke="black" points="952,-403.5 1016,-403.5 "/>
<text text-anchor="middle" x="984" y="-384.3" font-family="Times,serif" font-size="14.00">ants</text>
<polyline fill="none" stroke="black" points="952,-372.5 1016,-372.5 "/>
<text text-anchor="middle" x="984" y="-353.3" font-family="Times,serif" font-size="14.00"> </text>
<polyline fill="none" stroke="black" points="1016,-341.5 1016,-433.5 "/>
<text text-anchor="middle" x="1083.5" y="-418.3" font-family="Times,serif" font-size="14.00">OUT</text>
<polyline fill="none" stroke="black" points="1016,-410.5 1151,-410.5 "/>
<text text-anchor="middle" x="1083.5" y="-395.3" font-family="Times,serif" font-size="14.00">affine_transformation</text>
<polyline fill="none" stroke="black" points="1016,-387.5 1151,-387.5 "/>
<text text-anchor="middle" x="1083.5" y="-372.3" font-family="Times,serif" font-size="14.00">output_file</text>
<polyline fill="none" stroke="black" points="1016,-364.5 1151,-364.5 "/>
<text text-anchor="middle" x="1083.5" y="-349.3" font-family="Times,serif" font-size="14.00">warp_field</text>
</g>
<!-- process_timeseriesunlister&#45;&gt;process_timeserieswarp152 -->
<g id="edge16" class="edge"><title>process_timeseriesunlister:outstruct:e&#45;&gt;process_timeserieswarp152:ininputimage:w</title>
<path fill="none" stroke="black" d="M385,-823C534.863,-823 557.536,-742.731 672,-646 767.738,-565.094 807.188,-548.585 858,-434 862.825,-423.119 855.838,-388.16 859.275,-372.371"/>
<polygon fill="black" stroke="black" points="862.165,-374.376 866,-364.5 856.843,-369.829 862.165,-374.376"/>
</g>
<!-- process_timeseriesmeanimage -->
<g id="node4" class="node"><title>process_timeseriesmeanimage</title>
<polygon fill="none" stroke="black" points="275.5,-576.5 275.5,-645.5 466.5,-645.5 466.5,-576.5 275.5,-576.5"/>
<text text-anchor="middle" x="301.5" y="-624.8" font-family="Times,serif" font-size="14.00">IN</text>
<polyline fill="none" stroke="black" points="275.5,-611.5 327.5,-611.5 "/>
<text text-anchor="middle" x="301.5" y="-590.3" font-family="Times,serif" font-size="14.00">in_file</text>
<polyline fill="none" stroke="black" points="327.5,-576.5 327.5,-645.5 "/>
<text text-anchor="middle" x="367.5" y="-630.3" font-family="Times,serif" font-size="14.00">meanimage</text>
<polyline fill="none" stroke="black" points="327.5,-622.5 407.5,-622.5 "/>
<text text-anchor="middle" x="367.5" y="-607.3" font-family="Times,serif" font-size="14.00">fsl</text>
<polyline fill="none" stroke="black" points="327.5,-599.5 407.5,-599.5 "/>
<text text-anchor="middle" x="367.5" y="-584.3" font-family="Times,serif" font-size="14.00"> </text>
<polyline fill="none" stroke="black" points="407.5,-576.5 407.5,-645.5 "/>
<text text-anchor="middle" x="437" y="-624.8" font-family="Times,serif" font-size="14.00">OUT</text>
<polyline fill="none" stroke="black" points="407.5,-611.5 466.5,-611.5 "/>
<text text-anchor="middle" x="437" y="-590.3" font-family="Times,serif" font-size="14.00">out_file</text>
</g>
<!-- process_timeseriesmcflirt&#45;&gt;process_timeseriesmeanimage -->
<g id="edge9" class="edge"><title>process_timeseriesmcflirt:outoutfile:e&#45;&gt;process_timeseriesmeanimage:ininfile:w</title>
<path fill="none" stroke="black" d="M450,-700C458.012,-700 454.23,-688.07 449,-682 397.456,-622.17 325.451,-706.755 275,-646 269.635,-639.54 265.437,-615.017 267.975,-602.089"/>
<polygon fill="black" stroke="black" points="270.833,-604.111 274,-594 265.219,-599.929 270.833,-604.111"/>
</g>
<!-- process_timeseriesbet -->
<g id="node5" class="node"><title>process_timeseriesbet</title>
<polygon fill="none" stroke="black" points="467,-470.5 467,-539.5 623,-539.5 623,-470.5 467,-470.5"/>
<text text-anchor="middle" x="493" y="-518.8" font-family="Times,serif" font-size="14.00">IN</text>
<polyline fill="none" stroke="black" points="467,-505.5 519,-505.5 "/>
<text text-anchor="middle" x="493" y="-484.3" font-family="Times,serif" font-size="14.00">in_file</text>
<polyline fill="none" stroke="black" points="519,-470.5 519,-539.5 "/>
<text text-anchor="middle" x="535.5" y="-524.3" font-family="Times,serif" font-size="14.00">bet</text>
<polyline fill="none" stroke="black" points="519,-516.5 552,-516.5 "/>
<text text-anchor="middle" x="535.5" y="-501.3" font-family="Times,serif" font-size="14.00">fsl</text>
<polyline fill="none" stroke="black" points="519,-493.5 552,-493.5 "/>
<text text-anchor="middle" x="535.5" y="-478.3" font-family="Times,serif" font-size="14.00"> </text>
<polyline fill="none" stroke="black" points="552,-470.5 552,-539.5 "/>
<text text-anchor="middle" x="587.5" y="-524.3" font-family="Times,serif" font-size="14.00">OUT</text>
<polyline fill="none" stroke="black" points="552,-516.5 623,-516.5 "/>
<text text-anchor="middle" x="587.5" y="-501.3" font-family="Times,serif" font-size="14.00">mask_file</text>
<polyline fill="none" stroke="black" points="552,-493.5 623,-493.5 "/>
<text text-anchor="middle" x="587.5" y="-478.3" font-family="Times,serif" font-size="14.00">out_file</text>
</g>
<!-- process_timeseriesmeanimage&#45;&gt;process_timeseriesbet -->
<g id="edge10" class="edge"><title>process_timeseriesmeanimage:outoutfile:e&#45;&gt;process_timeseriesbet:ininfile:w</title>
<path fill="none" stroke="black" d="M468,-594C487.602,-594 456.891,-520.619 459.591,-495.967"/>
<polygon fill="black" stroke="black" points="462.459,-497.986 466,-488 457.005,-493.598 462.459,-497.986"/>
</g>
<!-- process_timeserieszscale -->
<g id="node6" class="node"><title>process_timeserieszscale</title>
<polygon fill="none" stroke="black" points="397,-353 397,-422 625,-422 625,-353 397,-353"/>
<text text-anchor="middle" x="440" y="-406.8" font-family="Times,serif" font-size="14.00">IN</text>
<polyline fill="none" stroke="black" points="397,-399 483,-399 "/>
<text text-anchor="middle" x="440" y="-383.8" font-family="Times,serif" font-size="14.00">input_image</text>
<polyline fill="none" stroke="black" points="397,-376 483,-376 "/>
<text text-anchor="middle" x="440" y="-360.8" font-family="Times,serif" font-size="14.00">mask_image</text>
<polyline fill="none" stroke="black" points="483,-353 483,-422 "/>
<text text-anchor="middle" x="508" y="-406.8" font-family="Times,serif" font-size="14.00">zscale</text>
<polyline fill="none" stroke="black" points="483,-399 533,-399 "/>
<text text-anchor="middle" x="508" y="-383.8" font-family="Times,serif" font-size="14.00">utility</text>
<polyline fill="none" stroke="black" points="483,-376 533,-376 "/>
<text text-anchor="middle" x="508" y="-360.8" font-family="Times,serif" font-size="14.00"> </text>
<polyline fill="none" stroke="black" points="533,-353 533,-422 "/>
<text text-anchor="middle" x="579" y="-401.3" font-family="Times,serif" font-size="14.00">OUT</text>
<polyline fill="none" stroke="black" points="533,-388 625,-388 "/>
<text text-anchor="middle" x="579" y="-366.8" font-family="Times,serif" font-size="14.00">output_image</text>
</g>
<!-- process_timeseriesmeanimage&#45;&gt;process_timeserieszscale -->
<g id="edge11" class="edge"><title>process_timeseriesmeanimage:outoutfile:e&#45;&gt;process_timeserieszscale:ininputimage:w</title>
<path fill="none" stroke="black" d="M468,-594C476.012,-594 468.918,-583.779 467,-576 449.055,-503.198 413.963,-495.537 397,-422.5 394.772,-412.908 388.732,-401.44 388.54,-394.311"/>
<polygon fill="black" stroke="black" points="390.975,-396.827 396,-387.5 386.255,-391.658 390.975,-396.827"/>
</g>
<!-- process_timeseriesbet&#45;&gt;process_timeserieszscale -->
<g id="edge1" class="edge"><title>process_timeseriesbet:outmaskfile:e&#45;&gt;process_timeserieszscale:inmaskimage:w</title>
<path fill="none" stroke="black" d="M624,-505C639.562,-505 632.979,-481.941 623,-470 557.185,-391.24 462.368,-501.631 397,-422.5 383.274,-405.884 373.781,-376.518 386.096,-367.33"/>
<polygon fill="black" stroke="black" points="387.346,-370.613 396,-364.5 385.423,-363.882 387.346,-370.613"/>
</g>
<!-- process_timeseriesflirt -->
<g id="node8" class="node"><title>process_timeseriesflirt</title>
<polygon fill="none" stroke="black" points="643.5,-353 643.5,-422 848.5,-422 848.5,-353 643.5,-353"/>
<text text-anchor="middle" x="677" y="-406.8" font-family="Times,serif" font-size="14.00">IN</text>
<polyline fill="none" stroke="black" points="643.5,-399 710.5,-399 "/>
<text text-anchor="middle" x="677" y="-383.8" font-family="Times,serif" font-size="14.00">in_file</text>
<polyline fill="none" stroke="black" points="643.5,-376 710.5,-376 "/>
<text text-anchor="middle" x="677" y="-360.8" font-family="Times,serif" font-size="14.00">reference</text>
<polyline fill="none" stroke="black" points="710.5,-353 710.5,-422 "/>
<text text-anchor="middle" x="729" y="-406.8" font-family="Times,serif" font-size="14.00">flirt</text>
<polyline fill="none" stroke="black" points="710.5,-399 747.5,-399 "/>
<text text-anchor="middle" x="729" y="-383.8" font-family="Times,serif" font-size="14.00">fsl</text>
<polyline fill="none" stroke="black" points="710.5,-376 747.5,-376 "/>
<text text-anchor="middle" x="729" y="-360.8" font-family="Times,serif" font-size="14.00"> </text>
<polyline fill="none" stroke="black" points="747.5,-353 747.5,-422 "/>
<text text-anchor="middle" x="798" y="-406.8" font-family="Times,serif" font-size="14.00">OUT</text>
<polyline fill="none" stroke="black" points="747.5,-399 848.5,-399 "/>
<text text-anchor="middle" x="798" y="-383.8" font-family="Times,serif" font-size="14.00">out_file</text>
<polyline fill="none" stroke="black" points="747.5,-376 848.5,-376 "/>
<text text-anchor="middle" x="798" y="-360.8" font-family="Times,serif" font-size="14.00">out_matrix_file</text>
</g>
<!-- process_timeseriesbet&#45;&gt;process_timeseriesflirt -->
<g id="edge2" class="edge"><title>process_timeseriesbet:outoutfile:e&#45;&gt;process_timeseriesflirt:ininfile:w</title>
<path fill="none" stroke="black" d="M624,-482C645.791,-482 629.93,-455.408 634,-434 635.362,-426.838 633.628,-407.155 635.97,-395.825"/>
<polygon fill="black" stroke="black" points="638.969,-397.652 642,-387.5 633.3,-393.546 638.969,-397.652"/>
</g>
<!-- process_timeserieszscale&#45;&gt;process_timeseriescoreg -->
<g id="edge21" class="edge"><title>process_timeserieszscale:outoutputimage:e&#45;&gt;process_timeseriescoreg:ininfile:w</title>
<path fill="none" stroke="black" d="M626,-370.5C639.708,-370.5 629.136,-353.39 635,-341 649.474,-310.419 645.481,-277.881 671.83,-271.588"/>
<polygon fill="black" stroke="black" points="672.429,-275.044 682,-270.5 671.684,-268.083 672.429,-275.044"/>
</g>
<!-- process_timeseriesskullstrip&#45;&gt;process_timeseriesflirt -->
<g id="edge13" class="edge"><title>process_timeseriesskullstrip:outoutfile:e&#45;&gt;process_timeseriesflirt:inreference:w</title>
<path fill="none" stroke="black" d="M664,-594C686.615,-594 632.19,-415.137 636.748,-373.216"/>
<polygon fill="black" stroke="black" points="639.837,-374.872 642,-364.5 633.841,-371.259 639.837,-374.872"/>
</g>
<!-- process_timeseriesflirt&#45;&gt;process_timeseriescoreg -->
<g id="edge6" class="edge"><title>process_timeseriesflirt:outoutmatrixfile:e&#45;&gt;process_timeseriescoreg:ininmatrixfile:w</title>
<path fill="none" stroke="black" d="M850,-364.5C855.352,-364.5 852.397,-356.636 849,-352.5 800.294,-293.199 729.722,-365.876 683,-305 669.765,-287.756 659.787,-258.462 672.06,-249.315"/>
<polygon fill="black" stroke="black" points="673.332,-252.592 682,-246.5 671.425,-245.857 673.332,-252.592"/>
</g>
<!-- process_timeseriesdataSink -->
<g id="node11" class="node"><title>process_timeseriesdataSink</title>
<polygon fill="none" stroke="black" points="905,-224 905,-293 1077,-293 1077,-224 905,-224"/>
<text text-anchor="middle" x="937" y="-277.8" font-family="Times,serif" font-size="14.00">IN</text>
<polyline fill="none" stroke="black" points="905,-270 969,-270 "/>
<text text-anchor="middle" x="937" y="-254.8" font-family="Times,serif" font-size="14.00">flrt</text>
<polyline fill="none" stroke="black" points="905,-247 969,-247 "/>
<text text-anchor="middle" x="937" y="-231.8" font-family="Times,serif" font-size="14.00">warp152</text>
<polyline fill="none" stroke="black" points="969,-224 969,-293 "/>
<text text-anchor="middle" x="1001" y="-277.8" font-family="Times,serif" font-size="14.00">dataSink</text>
<polyline fill="none" stroke="black" points="969,-270 1033,-270 "/>
<text text-anchor="middle" x="1001" y="-254.8" font-family="Times,serif" font-size="14.00">io</text>
<polyline fill="none" stroke="black" points="969,-247 1033,-247 "/>
<text text-anchor="middle" x="1001" y="-231.8" font-family="Times,serif" font-size="14.00"> </text>
<polyline fill="none" stroke="black" points="1033,-224 1033,-293 "/>
<text text-anchor="middle" x="1055" y="-254.8" font-family="Times,serif" font-size="14.00">OUT</text>
</g>
<!-- process_timeseriesflirt&#45;&gt;process_timeseriesdataSink -->
<g id="edge5" class="edge"><title>process_timeseriesflirt:outoutfile:e&#45;&gt;process_timeseriesdataSink:inflrt:w</title>
<path fill="none" stroke="black" d="M850,-387.5C860.485,-387.5 853.178,-350.31 858,-341 868.406,-320.908 883.179,-324.872 894,-305 901.582,-291.076 891.525,-271.882 894.941,-263.155"/>
<polygon fill="black" stroke="black" points="896.705,-266.183 904,-258.5 893.506,-259.957 896.705,-266.183"/>
</g>
<!-- process_timeseriescoreg2 -->
<g id="node13" class="node"><title>process_timeseriescoreg2</title>
<polygon fill="none" stroke="black" points="1083,-106.5 1083,-175.5 1313,-175.5 1313,-106.5 1083,-106.5"/>
<text text-anchor="middle" x="1125.5" y="-160.3" font-family="Times,serif" font-size="14.00">IN</text>
<polyline fill="none" stroke="black" points="1083,-152.5 1168,-152.5 "/>
<text text-anchor="middle" x="1125.5" y="-137.3" font-family="Times,serif" font-size="14.00">input_image</text>
<polyline fill="none" stroke="black" points="1083,-129.5 1168,-129.5 "/>
<text text-anchor="middle" x="1125.5" y="-114.3" font-family="Times,serif" font-size="14.00">transforms</text>
<polyline fill="none" stroke="black" points="1168,-106.5 1168,-175.5 "/>
<text text-anchor="middle" x="1194.5" y="-160.3" font-family="Times,serif" font-size="14.00">coreg2</text>
<polyline fill="none" stroke="black" points="1168,-152.5 1221,-152.5 "/>
<text text-anchor="middle" x="1194.5" y="-137.3" font-family="Times,serif" font-size="14.00">ants</text>
<polyline fill="none" stroke="black" points="1168,-129.5 1221,-129.5 "/>
<text text-anchor="middle" x="1194.5" y="-114.3" font-family="Times,serif" font-size="14.00"> </text>
<polyline fill="none" stroke="black" points="1221,-106.5 1221,-175.5 "/>
<text text-anchor="middle" x="1267" y="-154.8" font-family="Times,serif" font-size="14.00">OUT</text>
<polyline fill="none" stroke="black" points="1221,-141.5 1313,-141.5 "/>
<text text-anchor="middle" x="1267" y="-120.3" font-family="Times,serif" font-size="14.00">output_image</text>
</g>
<!-- process_timeseriescoreg&#45;&gt;process_timeseriescoreg2 -->
<g id="edge4" class="edge"><title>process_timeseriescoreg:outoutfile:e&#45;&gt;process_timeseriescoreg2:ininputimage:w</title>
<path fill="none" stroke="black" d="M886,-235.5C897.351,-235.5 887.824,-219.874 896,-212 957.246,-153.019 990.831,-141.831 1071.88,-141.047"/>
<polygon fill="black" stroke="black" points="1072.02,-144.546 1082,-141 1071.98,-137.546 1072.02,-144.546"/>
</g>
<!-- process_timeserieswarp152&#45;&gt;process_timeseriesdataSink -->
<g id="edge19" class="edge"><title>process_timeserieswarp152:outoutputfile:e&#45;&gt;process_timeseriesdataSink:inwarp152:w</title>
<path fill="none" stroke="black" d="M1152,-375.5C1167.34,-375.5 1160.94,-352.688 1151,-341 1078.88,-256.157 976.62,-378.764 905,-293.5 898.782,-286.097 894.077,-257.174 897.552,-243.174"/>
<polygon fill="black" stroke="black" points="900.247,-245.408 904,-235.5 894.887,-240.905 900.247,-245.408"/>
</g>
<!-- process_timeseriesmerge -->
<g id="node12" class="node"><title>process_timeseriesmerge</title>
<polygon fill="none" stroke="black" points="1151.5,-224 1151.5,-293 1280.5,-293 1280.5,-224 1151.5,-224"/>
<text text-anchor="middle" x="1168.5" y="-277.8" font-family="Times,serif" font-size="14.00">IN</text>
<polyline fill="none" stroke="black" points="1151.5,-270 1185.5,-270 "/>
<text text-anchor="middle" x="1168.5" y="-254.8" font-family="Times,serif" font-size="14.00">in1</text>
<polyline fill="none" stroke="black" points="1151.5,-247 1185.5,-247 "/>
<text text-anchor="middle" x="1168.5" y="-231.8" font-family="Times,serif" font-size="14.00">in2</text>
<polyline fill="none" stroke="black" points="1185.5,-224 1185.5,-293 "/>
<text text-anchor="middle" x="1211" y="-277.8" font-family="Times,serif" font-size="14.00">merge</text>
<polyline fill="none" stroke="black" points="1185.5,-270 1236.5,-270 "/>
<text text-anchor="middle" x="1211" y="-254.8" font-family="Times,serif" font-size="14.00">utility</text>
<polyline fill="none" stroke="black" points="1185.5,-247 1236.5,-247 "/>
<text text-anchor="middle" x="1211" y="-231.8" font-family="Times,serif" font-size="14.00"> </text>
<polyline fill="none" stroke="black" points="1236.5,-224 1236.5,-293 "/>
<text text-anchor="middle" x="1258.5" y="-272.3" font-family="Times,serif" font-size="14.00">OUT</text>
<polyline fill="none" stroke="black" points="1236.5,-259 1280.5,-259 "/>
<text text-anchor="middle" x="1258.5" y="-237.8" font-family="Times,serif" font-size="14.00">out</text>
</g>
<!-- process_timeserieswarp152&#45;&gt;process_timeseriesmerge -->
<g id="edge18" class="edge"><title>process_timeserieswarp152:outaffinetransformation:e&#45;&gt;process_timeseriesmerge:inin2:w</title>
<path fill="none" stroke="black" d="M1152,-399.5C1220.91,-399.5 1092.61,-252.947 1139.95,-236.918"/>
<polygon fill="black" stroke="black" points="1140.59,-240.362 1150,-235.5 1139.61,-233.431 1140.59,-240.362"/>
</g>
<!-- process_timeserieswarp152&#45;&gt;process_timeseriesmerge -->
<g id="edge20" class="edge"><title>process_timeserieswarp152:outwarpfield:e&#45;&gt;process_timeseriesmerge:inin1:w</title>
<path fill="none" stroke="black" d="M1152,-352.5C1188.89,-352.5 1126.52,-279.24 1140.15,-262.07"/>
<polygon fill="black" stroke="black" points="1141.79,-265.197 1150,-258.5 1139.41,-258.616 1141.79,-265.197"/>
</g>
<!-- process_timeseriesmerge&#45;&gt;process_timeseriescoreg2 -->
<g id="edge12" class="edge"><title>process_timeseriesmerge:outout:e&#45;&gt;process_timeseriescoreg2:intransforms:w</title>
<path fill="none" stroke="black" d="M1282,-241.5C1290.01,-241.5 1286.13,-229.652 1281,-223.5 1223.02,-154.018 1139.64,-246.578 1083,-176 1069.51,-159.192 1059.86,-129.955 1072.12,-120.814"/>
<polygon fill="black" stroke="black" points="1073.34,-124.104 1082,-118 1071.42,-117.372 1073.34,-124.104"/>
</g>
<!-- process_timeseriesisoSmooth -->
<g id="node14" class="node"><title>process_timeseriesisoSmooth</title>
<polygon fill="none" stroke="black" points="1313.5,-0.5 1313.5,-69.5 1484.5,-69.5 1484.5,-0.5 1313.5,-0.5"/>
<text text-anchor="middle" x="1339.5" y="-48.8" font-family="Times,serif" font-size="14.00">IN</text>
<polyline fill="none" stroke="black" points="1313.5,-35.5 1365.5,-35.5 "/>
<text text-anchor="middle" x="1339.5" y="-14.3" font-family="Times,serif" font-size="14.00">in_file</text>
<polyline fill="none" stroke="black" points="1365.5,-0.5 1365.5,-69.5 "/>
<text text-anchor="middle" x="1403" y="-54.3" font-family="Times,serif" font-size="14.00">isoSmooth</text>
<polyline fill="none" stroke="black" points="1365.5,-46.5 1440.5,-46.5 "/>
<text text-anchor="middle" x="1403" y="-31.3" font-family="Times,serif" font-size="14.00">fsl</text>
<polyline fill="none" stroke="black" points="1365.5,-23.5 1440.5,-23.5 "/>
<text text-anchor="middle" x="1403" y="-8.3" font-family="Times,serif" font-size="14.00"> </text>
<polyline fill="none" stroke="black" points="1440.5,-0.5 1440.5,-69.5 "/>
<text text-anchor="middle" x="1462.5" y="-31.3" font-family="Times,serif" font-size="14.00">OUT</text>
</g>
<!-- process_timeseriescoreg2&#45;&gt;process_timeseriesisoSmooth -->
<g id="edge3" class="edge"><title>process_timeseriescoreg2:outoutputimage:e&#45;&gt;process_timeseriesisoSmooth:ininfile:w</title>
<path fill="none" stroke="black" d="M1314,-124C1356.7,-124 1281.67,-36.9434 1302.29,-20.6202"/>
<polygon fill="black" stroke="black" points="1303.26,-23.9848 1312,-18 1301.43,-17.2266 1303.26,-23.9848"/>
</g>
</g>
</svg>
