<?xml version="1.0" encoding="UTF-8" standalone="no"?>
<!DOCTYPE svg PUBLIC "-//W3C//DTD SVG 1.1//EN"
 "http://www.w3.org/Graphics/SVG/1.1/DTD/svg11.dtd">
<!-- Generated by graphviz version 2.38.0 (20140413.2041)
 -->
<!-- Title: %3 Pages: 1 -->
<svg width="422pt" height="620pt"
 viewBox="0.00 0.00 422.39 620.00" xmlns="http://www.w3.org/2000/svg" xmlns:xlink="http://www.w3.org/1999/xlink">
<g id="graph0" class="graph" transform="scale(1 1) rotate(0) translate(4 616)">
<title>%3</title>
<polygon fill="white" stroke="none" points="-4,4 -4,-616 418.394,-616 418.394,4 -4,4"/>
<!-- coreg2 (ants) -->
<g id="node1" class="node"><title>coreg2 (ants)</title>
<ellipse fill="none" stroke="black" cx="222" cy="-90" rx="57.3905" ry="18"/>
<text text-anchor="middle" x="222" y="-86.3" font-family="Times,serif" font-size="14.00">coreg2 (ants)</text>
</g>
<!-- isoSmooth (fsl) -->
<g id="node12" class="node"><title>isoSmooth (fsl)</title>
<ellipse fill="none" stroke="black" cx="222" cy="-18" rx="65.7887" ry="18"/>
<text text-anchor="middle" x="222" y="-14.3" font-family="Times,serif" font-size="14.00">isoSmooth (fsl)</text>
</g>
<!-- coreg2 (ants)&#45;&gt;isoSmooth (fsl) -->
<g id="edge1" class="edge"><title>coreg2 (ants)&#45;&gt;isoSmooth (fsl)</title>
<path fill="none" stroke="black" d="M222,-71.6966C222,-63.9827 222,-54.7125 222,-46.1124"/>
<polygon fill="black" stroke="black" points="225.5,-46.1043 222,-36.1043 218.5,-46.1044 225.5,-46.1043"/>
</g>
<!-- meanimage (fsl) -->
<g id="node2" class="node"><title>meanimage (fsl)</title>
<ellipse fill="none" stroke="black" cx="98" cy="-378" rx="69.5877" ry="18"/>
<text text-anchor="middle" x="98" y="-374.3" font-family="Times,serif" font-size="14.00">meanimage (fsl)</text>
</g>
<!-- bet (fsl) -->
<g id="node11" class="node"><title>bet (fsl)</title>
<ellipse fill="none" stroke="black" cx="160" cy="-306" rx="38.1938" ry="18"/>
<text text-anchor="middle" x="160" y="-302.3" font-family="Times,serif" font-size="14.00">bet (fsl)</text>
</g>
<!-- meanimage (fsl)&#45;&gt;bet (fsl) -->
<g id="edge2" class="edge"><title>meanimage (fsl)&#45;&gt;bet (fsl)</title>
<path fill="none" stroke="black" d="M113.008,-360.055C120.848,-351.204 130.567,-340.231 139.127,-330.566"/>
<polygon fill="black" stroke="black" points="141.969,-332.636 145.98,-322.829 136.729,-327.995 141.969,-332.636"/>
</g>
<!-- zscale (utility) -->
<g id="node14" class="node"><title>zscale (utility)</title>
<ellipse fill="none" stroke="black" cx="94" cy="-234" rx="61.99" ry="18"/>
<text text-anchor="middle" x="94" y="-230.3" font-family="Times,serif" font-size="14.00">zscale (utility)</text>
</g>
<!-- meanimage (fsl)&#45;&gt;zscale (utility) -->
<g id="edge3" class="edge"><title>meanimage (fsl)&#45;&gt;zscale (utility)</title>
<path fill="none" stroke="black" d="M97.5175,-359.871C96.8358,-335.67 95.5834,-291.211 94.7716,-262.393"/>
<polygon fill="black" stroke="black" points="98.2645,-262.087 94.4842,-252.189 91.2673,-262.284 98.2645,-262.087"/>
</g>
<!-- merge (utility) -->
<g id="node3" class="node"><title>merge (utility)</title>
<ellipse fill="none" stroke="black" cx="352" cy="-162" rx="62.2891" ry="18"/>
<text text-anchor="middle" x="352" y="-158.3" font-family="Times,serif" font-size="14.00">merge (utility)</text>
</g>
<!-- merge (utility)&#45;&gt;coreg2 (ants) -->
<g id="edge4" class="edge"><title>merge (utility)&#45;&gt;coreg2 (ants)</title>
<path fill="none" stroke="black" d="M323.792,-145.811C304.667,-135.513 279.207,-121.804 258.534,-110.672"/>
<polygon fill="black" stroke="black" points="260.171,-107.578 249.706,-105.919 256.852,-113.742 260.171,-107.578"/>
</g>
<!-- unlister (utility) -->
<g id="node4" class="node"><title>unlister (utility)</title>
<ellipse fill="none" stroke="black" cx="192" cy="-522" rx="66.0889" ry="18"/>
<text text-anchor="middle" x="192" y="-518.3" font-family="Times,serif" font-size="14.00">unlister (utility)</text>
</g>
<!-- mcflirt (fsl) -->
<g id="node5" class="node"><title>mcflirt (fsl)</title>
<ellipse fill="none" stroke="black" cx="116" cy="-450" rx="51.9908" ry="18"/>
<text text-anchor="middle" x="116" y="-446.3" font-family="Times,serif" font-size="14.00">mcflirt (fsl)</text>
</g>
<!-- unlister (utility)&#45;&gt;mcflirt (fsl) -->
<g id="edge5" class="edge"><title>unlister (utility)&#45;&gt;mcflirt (fsl)</title>
<path fill="none" stroke="black" d="M173.989,-504.411C164.099,-495.302 151.683,-483.866 140.881,-473.916"/>
<polygon fill="black" stroke="black" points="143.085,-471.188 133.359,-466.988 138.343,-476.337 143.085,-471.188"/>
</g>
<!-- warp152 (ants) -->
<g id="node6" class="node"><title>warp152 (ants)</title>
<ellipse fill="none" stroke="black" cx="345" cy="-234" rx="63.8893" ry="18"/>
<text text-anchor="middle" x="345" y="-230.3" font-family="Times,serif" font-size="14.00">warp152 (ants)</text>
</g>
<!-- unlister (utility)&#45;&gt;warp152 (ants) -->
<g id="edge6" class="edge"><title>unlister (utility)&#45;&gt;warp152 (ants)</title>
<path fill="none" stroke="black" d="M217.828,-505.225C249.285,-484.463 301.276,-444.817 326,-396 347.708,-353.139 348.914,-295.852 347.307,-262.435"/>
<polygon fill="black" stroke="black" points="350.778,-261.843 346.68,-252.073 343.791,-262.266 350.778,-261.843"/>
</g>
<!-- coreg (fsl) -->
<g id="node9" class="node"><title>coreg (fsl)</title>
<ellipse fill="none" stroke="black" cx="93" cy="-162" rx="47.3916" ry="18"/>
<text text-anchor="middle" x="93" y="-158.3" font-family="Times,serif" font-size="14.00">coreg (fsl)</text>
</g>
<!-- unlister (utility)&#45;&gt;coreg (fsl) -->
<g id="edge7" class="edge"><title>unlister (utility)&#45;&gt;coreg (fsl)</title>
<path fill="none" stroke="black" d="M142.004,-510.05C114.092,-502.005 80.0113,-488.777 55,-468 19.2325,-438.287 0,-425.499 0,-379 0,-379 0,-379 0,-305 0,-264.145 0.344009,-249.998 23,-216 31.8599,-202.705 45.1988,-191.412 57.864,-182.711"/>
<polygon fill="black" stroke="black" points="59.9942,-185.5 66.4612,-177.108 56.1723,-179.636 59.9942,-185.5"/>
</g>
<!-- skullstrip (afni) -->
<g id="node10" class="node"><title>skullstrip (afni)</title>
<ellipse fill="none" stroke="black" cx="251" cy="-378" rx="65.7887" ry="18"/>
<text text-anchor="middle" x="251" y="-374.3" font-family="Times,serif" font-size="14.00">skullstrip (afni)</text>
</g>
<!-- unlister (utility)&#45;&gt;skullstrip (afni) -->
<g id="edge8" class="edge"><title>unlister (utility)&#45;&gt;skullstrip (afni)</title>
<path fill="none" stroke="black" d="M199.117,-503.871C209.261,-479.457 227.971,-434.426 239.933,-405.635"/>
<polygon fill="black" stroke="black" points="243.253,-406.767 243.858,-396.189 236.789,-404.081 243.253,-406.767"/>
</g>
<!-- mcflirt (fsl)&#45;&gt;meanimage (fsl) -->
<g id="edge9" class="edge"><title>mcflirt (fsl)&#45;&gt;meanimage (fsl)</title>
<path fill="none" stroke="black" d="M111.643,-432.055C109.639,-424.261 107.211,-414.822 104.963,-406.079"/>
<polygon fill="black" stroke="black" points="108.322,-405.089 102.442,-396.275 101.543,-406.832 108.322,-405.089"/>
</g>
<!-- warp152 (ants)&#45;&gt;merge (utility) -->
<g id="edge10" class="edge"><title>warp152 (ants)&#45;&gt;merge (utility)</title>
<path fill="none" stroke="black" d="M346.73,-215.697C347.502,-207.983 348.429,-198.712 349.289,-190.112"/>
<polygon fill="black" stroke="black" points="352.777,-190.403 350.29,-180.104 345.812,-189.706 352.777,-190.403"/>
</g>
<!-- dataSink (io) -->
<g id="node13" class="node"><title>dataSink (io)</title>
<ellipse fill="none" stroke="black" cx="215" cy="-162" rx="56.59" ry="18"/>
<text text-anchor="middle" x="215" y="-158.3" font-family="Times,serif" font-size="14.00">dataSink (io)</text>
</g>
<!-- warp152 (ants)&#45;&gt;dataSink (io) -->
<g id="edge11" class="edge"><title>warp152 (ants)&#45;&gt;dataSink (io)</title>
<path fill="none" stroke="black" d="M316.792,-217.811C297.667,-207.513 272.207,-193.804 251.534,-182.672"/>
<polygon fill="black" stroke="black" points="253.171,-179.578 242.706,-177.919 249.852,-185.742 253.171,-179.578"/>
</g>
<!-- grabber (io) -->
<g id="node7" class="node"><title>grabber (io)</title>
<ellipse fill="none" stroke="black" cx="192" cy="-594" rx="52.7911" ry="18"/>
<text text-anchor="middle" x="192" y="-590.3" font-family="Times,serif" font-size="14.00">grabber (io)</text>
</g>
<!-- grabber (io)&#45;&gt;unlister (utility) -->
<g id="edge12" class="edge"><title>grabber (io)&#45;&gt;unlister (utility)</title>
<path fill="none" stroke="black" d="M192,-575.697C192,-567.983 192,-558.712 192,-550.112"/>
<polygon fill="black" stroke="black" points="195.5,-550.104 192,-540.104 188.5,-550.104 195.5,-550.104"/>
</g>
<!-- flirt (fsl) -->
<g id="node8" class="node"><title>flirt (fsl)</title>
<ellipse fill="none" stroke="black" cx="215" cy="-234" rx="40.8928" ry="18"/>
<text text-anchor="middle" x="215" y="-230.3" font-family="Times,serif" font-size="14.00">flirt (fsl)</text>
</g>
<!-- flirt (fsl)&#45;&gt;coreg (fsl) -->
<g id="edge14" class="edge"><title>flirt (fsl)&#45;&gt;coreg (fsl)</title>
<path fill="none" stroke="black" d="M191.188,-219.337C172.824,-208.801 147.191,-194.093 126.719,-182.347"/>
<polygon fill="black" stroke="black" points="128.426,-179.291 118.011,-177.35 124.942,-185.363 128.426,-179.291"/>
</g>
<!-- flirt (fsl)&#45;&gt;dataSink (io) -->
<g id="edge13" class="edge"><title>flirt (fsl)&#45;&gt;dataSink (io)</title>
<path fill="none" stroke="black" d="M215,-215.697C215,-207.983 215,-198.712 215,-190.112"/>
<polygon fill="black" stroke="black" points="218.5,-190.104 215,-180.104 211.5,-190.104 218.5,-190.104"/>
</g>
<!-- coreg (fsl)&#45;&gt;coreg2 (ants) -->
<g id="edge15" class="edge"><title>coreg (fsl)&#45;&gt;coreg2 (ants)</title>
<path fill="none" stroke="black" d="M119.105,-146.834C138.216,-136.464 164.398,-122.257 185.568,-110.769"/>
<polygon fill="black" stroke="black" points="187.478,-113.715 194.598,-105.869 184.139,-107.562 187.478,-113.715"/>
</g>
<!-- skullstrip (afni)&#45;&gt;flirt (fsl) -->
<g id="edge16" class="edge"><title>skullstrip (afni)&#45;&gt;flirt (fsl)</title>
<path fill="none" stroke="black" d="M246.658,-359.871C240.495,-335.564 229.151,-290.819 221.848,-262.013"/>
<polygon fill="black" stroke="black" points="225.208,-261.022 219.358,-252.189 218.423,-262.743 225.208,-261.022"/>
</g>
<!-- bet (fsl)&#45;&gt;flirt (fsl) -->
<g id="edge18" class="edge"><title>bet (fsl)&#45;&gt;flirt (fsl)</title>
<path fill="none" stroke="black" d="M172.756,-288.765C179.698,-279.93 188.419,-268.83 196.132,-259.014"/>
<polygon fill="black" stroke="black" points="198.887,-261.173 202.313,-251.147 193.382,-256.848 198.887,-261.173"/>
</g>
<!-- bet (fsl)&#45;&gt;zscale (utility) -->
<g id="edge17" class="edge"><title>bet (fsl)&#45;&gt;zscale (utility)</title>
<path fill="none" stroke="black" d="M145.024,-289.116C136.659,-280.244 126.065,-269.009 116.701,-259.077"/>
<polygon fill="black" stroke="black" points="119.244,-256.672 109.838,-251.797 114.151,-261.474 119.244,-256.672"/>
</g>
<!-- zscale (utility)&#45;&gt;coreg (fsl) -->
<g id="edge19" class="edge"><title>zscale (utility)&#45;&gt;coreg (fsl)</title>
<path fill="none" stroke="black" d="M93.7528,-215.697C93.6426,-207.983 93.5102,-198.712 93.3873,-190.112"/>
<polygon fill="black" stroke="black" points="96.8869,-190.053 93.2443,-180.104 89.8876,-190.153 96.8869,-190.053"/>
</g>
</g>
</svg>
