<?xml version="1.0" encoding="UTF-8" standalone="no"?>
<!DOCTYPE svg PUBLIC "-//W3C//DTD SVG 1.1//EN"
 "http://www.w3.org/Graphics/SVG/1.1/DTD/svg11.dtd">
<!-- Generated by graphviz version 2.38.0 (20140413.2041)
 -->
<!-- Title: structs Pages: 1 -->
<svg width="542pt" height="184pt"
 viewBox="0.00 0.00 541.50 184.00" xmlns="http://www.w3.org/2000/svg" xmlns:xlink="http://www.w3.org/1999/xlink">
<g id="graph0" class="graph" transform="scale(1 1) rotate(0) translate(4 180)">
<title>structs</title>
<polygon fill="white" stroke="none" points="-4,4 -4,-180 537.5,-180 537.5,4 -4,4"/>
<!-- fmri_to_templateget_transforms -->
<g id="node1" class="node"><title>fmri_to_templateget_transforms</title>
<polygon fill="none" stroke="black" points="0,-106.5 0,-175.5 362,-175.5 362,-106.5 0,-106.5"/>
<text text-anchor="middle" x="15.5" y="-137.3" font-family="Times,serif" font-size="14.00">IN</text>
<polyline fill="none" stroke="black" points="31,-106.5 31,-175.5 "/>
<text text-anchor="middle" x="80" y="-160.3" font-family="Times,serif" font-size="14.00">get_transforms</text>
<polyline fill="none" stroke="black" points="31,-152.5 129,-152.5 "/>
<text text-anchor="middle" x="80" y="-137.3" font-family="Times,serif" font-size="14.00"> </text>
<polyline fill="none" stroke="black" points="31,-129.5 129,-129.5 "/>
<text text-anchor="middle" x="80" y="-114.3" font-family="Times,serif" font-size="14.00"> </text>
<polyline fill="none" stroke="black" points="129,-106.5 129,-175.5 "/>
<text text-anchor="middle" x="245.5" y="-154.8" font-family="Times,serif" font-size="14.00">OUT</text>
<polyline fill="none" stroke="black" points="129,-141.5 362,-141.5 "/>
<text text-anchor="middle" x="245.5" y="-120.3" font-family="Times,serif" font-size="14.00">coreg_to_template_space.output_image</text>
</g>
<!-- fmri_to_templateisoSmooth -->
<g id="node2" class="node"><title>fmri_to_templateisoSmooth</title>
<polygon fill="none" stroke="black" points="362.5,-0.5 362.5,-69.5 533.5,-69.5 533.5,-0.5 362.5,-0.5"/>
<text text-anchor="middle" x="388.5" y="-48.8" font-family="Times,serif" font-size="14.00">IN</text>
<polyline fill="none" stroke="black" points="362.5,-35.5 414.5,-35.5 "/>
<text text-anchor="middle" x="388.5" y="-14.3" font-family="Times,serif" font-size="14.00">in_file</text>
<polyline fill="none" stroke="black" points="414.5,-0.5 414.5,-69.5 "/>
<text text-anchor="middle" x="452" y="-54.3" font-family="Times,serif" font-size="14.00">isoSmooth</text>
<polyline fill="none" stroke="black" points="414.5,-46.5 489.5,-46.5 "/>
<text text-anchor="middle" x="452" y="-31.3" font-family="Times,serif" font-size="14.00">fsl</text>
<polyline fill="none" stroke="black" points="414.5,-23.5 489.5,-23.5 "/>
<text text-anchor="middle" x="452" y="-8.3" font-family="Times,serif" font-size="14.00"> </text>
<polyline fill="none" stroke="black" points="489.5,-0.5 489.5,-69.5 "/>
<text text-anchor="middle" x="511.5" y="-31.3" font-family="Times,serif" font-size="14.00">OUT</text>
</g>
<!-- fmri_to_templateget_transforms&#45;&gt;fmri_to_templateisoSmooth -->
<g id="edge1" class="edge"><title>fmri_to_templateget_transforms:outcoregtotemplatespaceoutputimage:e&#45;&gt;fmri_to_templateisoSmooth:ininfile:w</title>
<path fill="none" stroke="black" d="M363,-124C405.702,-124 330.665,-36.9434 351.291,-20.6202"/>
<polygon fill="black" stroke="black" points="352.257,-23.9848 361,-18 350.433,-17.2266 352.257,-23.9848"/>
</g>
</g>
</svg>
